<svg xmlns="http://www.w3.org/2000/svg" viewBox="0 0 800 400" font-family="'Space Grotesk', sans-serif">
  <!-- Background -->
  <rect width="800" height="400" rx="8" fill="#0f2d35"/>

  <!-- Title -->
  <text x="400" y="34" fill="#ffffff" font-size="18" font-weight="700" text-anchor="middle">AI Coding Assistants: Head-to-Head</text>
  <text x="400" y="52" fill="#a8c5cc" font-size="11" text-anchor="middle">5 leading tools compared on key features (April 2026)</text>

  <!-- Radar/comparison visualization using horizontal grouped bars -->
  <!-- Categories: Autocomplete, Chat, Agent Mode, Price -->

  <!-- Column headers -->
  <rect x="30" y="64" width="740" height="28" rx="4" fill="#132f38"/>
  <text x="90" y="82" fill="#6a8a94" font-size="10" font-weight="600" text-anchor="middle">TOOL</text>
  <text x="220" y="82" fill="#6a8a94" font-size="10" font-weight="600" text-anchor="middle">PRICE</text>
  <text x="340" y="82" fill="#6a8a94" font-size="10" font-weight="600" text-anchor="middle">AUTOCOMPLETE</text>
  <text x="460" y="82" fill="#6a8a94" font-size="10" font-weight="600" text-anchor="middle">CHAT</text>
  <text x="575" y="82" fill="#6a8a94" font-size="10" font-weight="600" text-anchor="middle">AGENT MODE</text>
  <text x="700" y="82" fill="#6a8a94" font-size="10" font-weight="600" text-anchor="middle">AWARD</text>

  <!-- Divider lines -->
  <g stroke="#1a4a56" stroke-opacity="0.3" stroke-width="1">
    <line x1="155" y1="64" x2="155" y2="350"/>
    <line x1="280" y1="64" x2="280" y2="350"/>
    <line x1="400" y1="64" x2="400" y2="350"/>
    <line x1="520" y1="64" x2="520" y2="350"/>
    <line x1="635" y1="64" x2="635" y2="350"/>
  </g>
  <g stroke="#1a4a56" stroke-opacity="0.4" stroke-width="1">
    <line x1="30" y1="148" x2="770" y2="148"/>
    <line x1="30" y1="202" x2="770" y2="202"/>
    <line x1="30" y1="256" x2="770" y2="256"/>
    <line x1="30" y1="310" x2="770" y2="310"/>
  </g>

  <!-- Row 1: Cursor (Best Overall) -->
  <text x="90" y="112" fill="#ffffff" font-size="14" font-weight="700" text-anchor="middle">Cursor</text>
  <text x="90" y="130" fill="#6a8a94" font-size="10" text-anchor="middle">AI IDE</text>
  <text x="220" y="120" fill="#e8a87c" font-size="13" font-weight="600" text-anchor="middle">$20/mo</text>
  <text x="220" y="136" fill="#6a8a94" font-size="9" text-anchor="middle">Free tier avail.</text>
  <!-- Rating dots: 5/5 -->
  <g transform="translate(310,112)">
    <circle cx="0" cy="0" r="5" fill="#3d8a9a"/><circle cx="14" cy="0" r="5" fill="#3d8a9a"/><circle cx="28" cy="0" r="5" fill="#3d8a9a"/><circle cx="42" cy="0" r="5" fill="#3d8a9a"/><circle cx="56" cy="0" r="5" fill="#3d8a9a"/>
  </g>
  <g transform="translate(430,112)">
    <circle cx="0" cy="0" r="5" fill="#e8a87c"/><circle cx="14" cy="0" r="5" fill="#e8a87c"/><circle cx="28" cy="0" r="5" fill="#e8a87c"/><circle cx="42" cy="0" r="5" fill="#e8a87c"/><circle cx="56" cy="0" r="5" fill="#e8a87c"/>
  </g>
  <g transform="translate(545,112)">
    <circle cx="0" cy="0" r="5" fill="#3d8a9a"/><circle cx="14" cy="0" r="5" fill="#3d8a9a"/><circle cx="28" cy="0" r="5" fill="#3d8a9a"/><circle cx="42" cy="0" r="5" fill="#3d8a9a"/><circle cx="56" cy="0" r="5" fill="#3d8a9a"/>
  </g>
  <rect x="650" y="104" width="100" height="18" rx="9" fill="#e8a87c"/>
  <text x="700" y="117" fill="#0a1f25" font-size="9" font-weight="700" text-anchor="middle">BEST OVERALL</text>

  <!-- Row 2: Copilot -->
  <text x="90" y="166" fill="#ffffff" font-size="14" font-weight="700" text-anchor="middle">Copilot</text>
  <text x="90" y="184" fill="#6a8a94" font-size="10" text-anchor="middle">GitHub</text>
  <text x="220" y="174" fill="#e8a87c" font-size="13" font-weight="600" text-anchor="middle">$10/mo</text>
  <text x="220" y="190" fill="#6a8a94" font-size="9" text-anchor="middle">Free tier avail.</text>
  <g transform="translate(310,166)">
    <circle cx="0" cy="0" r="5" fill="#3d8a9a"/><circle cx="14" cy="0" r="5" fill="#3d8a9a"/><circle cx="28" cy="0" r="5" fill="#3d8a9a"/><circle cx="42" cy="0" r="5" fill="#3d8a9a"/><circle cx="56" cy="0" r="5" fill="#3d8a9a"/>
  </g>
  <g transform="translate(430,166)">
    <circle cx="0" cy="0" r="5" fill="#e8a87c"/><circle cx="14" cy="0" r="5" fill="#e8a87c"/><circle cx="28" cy="0" r="5" fill="#e8a87c"/><circle cx="42" cy="0" r="5" fill="#e8a87c"/><circle cx="56" cy="0" r="5" fill="#e8a87c" opacity="0.3"/>
  </g>
  <g transform="translate(545,166)">
    <circle cx="0" cy="0" r="5" fill="#3d8a9a"/><circle cx="14" cy="0" r="5" fill="#3d8a9a"/><circle cx="28" cy="0" r="5" fill="#3d8a9a"/><circle cx="42" cy="0" r="5" fill="#3d8a9a"/><circle cx="56" cy="0" r="5" fill="#3d8a9a" opacity="0.3"/>
  </g>
  <rect x="650" y="158" width="100" height="18" rx="9" fill="rgba(232,168,124,0.15)"/>
  <text x="700" y="171" fill="#e8a87c" font-size="9" font-weight="700" text-anchor="middle">AUTOCOMPLETE</text>

  <!-- Row 3: Claude Code -->
  <text x="90" y="220" fill="#ffffff" font-size="14" font-weight="700" text-anchor="middle">Claude Code</text>
  <text x="90" y="238" fill="#6a8a94" font-size="10" text-anchor="middle">Anthropic</text>
  <text x="220" y="228" fill="#e8a87c" font-size="13" font-weight="600" text-anchor="middle">Usage</text>
  <text x="220" y="244" fill="#6a8a94" font-size="9" text-anchor="middle">Requires Pro $20</text>
  <g transform="translate(310,220)">
    <circle cx="0" cy="0" r="5" fill="#3d8a9a" opacity="0.3"/><circle cx="14" cy="0" r="5" fill="#3d8a9a" opacity="0.3"/><circle cx="28" cy="0" r="5" fill="#3d8a9a" opacity="0.3"/><circle cx="42" cy="0" r="5" fill="#3d8a9a" opacity="0.3"/><circle cx="56" cy="0" r="5" fill="#3d8a9a" opacity="0.3"/>
  </g>
  <text x="340" y="240" fill="#6a8a94" font-size="9" text-anchor="middle">CLI only</text>
  <g transform="translate(430,220)">
    <circle cx="0" cy="0" r="5" fill="#e8a87c"/><circle cx="14" cy="0" r="5" fill="#e8a87c"/><circle cx="28" cy="0" r="5" fill="#e8a87c"/><circle cx="42" cy="0" r="5" fill="#e8a87c"/><circle cx="56" cy="0" r="5" fill="#e8a87c"/>
  </g>
  <g transform="translate(545,220)">
    <circle cx="0" cy="0" r="5" fill="#3d8a9a"/><circle cx="14" cy="0" r="5" fill="#3d8a9a"/><circle cx="28" cy="0" r="5" fill="#3d8a9a"/><circle cx="42" cy="0" r="5" fill="#3d8a9a"/><circle cx="56" cy="0" r="5" fill="#3d8a9a"/>
  </g>
  <rect x="650" y="212" width="100" height="18" rx="9" fill="rgba(232,168,124,0.15)"/>
  <text x="700" y="225" fill="#e8a87c" font-size="9" font-weight="700" text-anchor="middle">BIG PROJECTS</text>

  <!-- Row 4: Windsurf -->
  <text x="90" y="274" fill="#ffffff" font-size="14" font-weight="700" text-anchor="middle">Windsurf</text>
  <text x="90" y="292" fill="#6a8a94" font-size="10" text-anchor="middle">Codeium</text>
  <text x="220" y="282" fill="#e8a87c" font-size="13" font-weight="600" text-anchor="middle">$15/mo</text>
  <text x="220" y="298" fill="#6a8a94" font-size="9" text-anchor="middle">Free tier avail.</text>
  <g transform="translate(310,274)">
    <circle cx="0" cy="0" r="5" fill="#3d8a9a"/><circle cx="14" cy="0" r="5" fill="#3d8a9a"/><circle cx="28" cy="0" r="5" fill="#3d8a9a"/><circle cx="42" cy="0" r="5" fill="#3d8a9a"/><circle cx="56" cy="0" r="5" fill="#3d8a9a" opacity="0.3"/>
  </g>
  <g transform="translate(430,274)">
    <circle cx="0" cy="0" r="5" fill="#e8a87c"/><circle cx="14" cy="0" r="5" fill="#e8a87c"/><circle cx="28" cy="0" r="5" fill="#e8a87c"/><circle cx="42" cy="0" r="5" fill="#e8a87c"/><circle cx="56" cy="0" r="5" fill="#e8a87c" opacity="0.3"/>
  </g>
  <g transform="translate(545,274)">
    <circle cx="0" cy="0" r="5" fill="#3d8a9a"/><circle cx="14" cy="0" r="5" fill="#3d8a9a"/><circle cx="28" cy="0" r="5" fill="#3d8a9a"/><circle cx="42" cy="0" r="5" fill="#3d8a9a"/><circle cx="56" cy="0" r="5" fill="#3d8a9a" opacity="0.3"/>
  </g>
  <rect x="650" y="266" width="100" height="18" rx="9" fill="rgba(232,168,124,0.15)"/>
  <text x="700" y="279" fill="#e8a87c" font-size="9" font-weight="700" text-anchor="middle">BEST VALUE</text>

  <!-- Row 5: Amazon Q -->
  <text x="90" y="328" fill="#ffffff" font-size="14" font-weight="700" text-anchor="middle">Amazon Q</text>
  <text x="90" y="346" fill="#6a8a94" font-size="10" text-anchor="middle">AWS</text>
  <text x="220" y="336" fill="#e8a87c" font-size="13" font-weight="600" text-anchor="middle">$19/mo</text>
  <text x="220" y="352" fill="#6a8a94" font-size="9" text-anchor="middle">Free tier avail.</text>
  <g transform="translate(310,328)">
    <circle cx="0" cy="0" r="5" fill="#3d8a9a"/><circle cx="14" cy="0" r="5" fill="#3d8a9a"/><circle cx="28" cy="0" r="5" fill="#3d8a9a"/><circle cx="42" cy="0" r="5" fill="#3d8a9a" opacity="0.3"/><circle cx="56" cy="0" r="5" fill="#3d8a9a" opacity="0.3"/>
  </g>
  <g transform="translate(430,328)">
    <circle cx="0" cy="0" r="5" fill="#e8a87c"/><circle cx="14" cy="0" r="5" fill="#e8a87c"/><circle cx="28" cy="0" r="5" fill="#e8a87c"/><circle cx="42" cy="0" r="5" fill="#e8a87c" opacity="0.3"/><circle cx="56" cy="0" r="5" fill="#e8a87c" opacity="0.3"/>
  </g>
  <g transform="translate(545,328)">
    <circle cx="0" cy="0" r="5" fill="#3d8a9a"/><circle cx="14" cy="0" r="5" fill="#3d8a9a"/><circle cx="28" cy="0" r="5" fill="#3d8a9a"/><circle cx="42" cy="0" r="5" fill="#3d8a9a" opacity="0.3"/><circle cx="56" cy="0" r="5" fill="#3d8a9a" opacity="0.3"/>
  </g>
  <rect x="650" y="320" width="100" height="18" rx="9" fill="rgba(232,168,124,0.15)"/>
  <text x="700" y="333" fill="#e8a87c" font-size="9" font-weight="700" text-anchor="middle">BEST AWS</text>

  <!-- Watermark -->
  <text x="780" y="390" fill="#6a8a94" font-size="10" text-anchor="end">PE Collective</text>
</svg>