<svg xmlns="http://www.w3.org/2000/svg" viewBox="0 0 800 400">
  <defs>
    <linearGradient id="colBg" x1="0%" y1="0%" x2="0%" y2="100%">
      <stop offset="0%" style="stop-color:#1a4a56;stop-opacity:0.3"/>
      <stop offset="100%" style="stop-color:#132f38;stop-opacity:0.6"/>
    </linearGradient>
  </defs>
  <rect width="800" height="400" fill="#0f2d35"/>

  <!-- Title -->
  <text x="400" y="28" fill="#ffffff" font-family="system-ui, -apple-system, sans-serif" font-size="18" font-weight="700" text-anchor="middle">AI Orchestration Framework Comparison</text>
  <text x="400" y="45" fill="#6a8a94" font-family="system-ui, sans-serif" font-size="11" text-anchor="middle">LangChain vs LlamaIndex vs CrewAI — strengths across 5 dimensions</text>

  <!-- Three columns -->
  <!-- LangChain -->
  <rect x="22" y="58" width="245" height="330" rx="12" fill="url(#colBg)" stroke="#e8a87c" stroke-width="1.5"/>
  <text x="144" y="84" fill="#ffffff" font-family="system-ui, sans-serif" font-size="17" font-weight="700" text-anchor="middle">LangChain</text>
  <rect x="95" y="90" width="98" height="18" rx="9" fill="#1a4a56"/>
  <text x="144" y="103" fill="#e8a87c" font-family="system-ui, sans-serif" font-size="10" text-anchor="middle">&#9733; 95K GitHub</text>

  <!-- Radar-style bars for LangChain -->
  <text x="42" y="135" fill="#a8c5cc" font-family="system-ui, sans-serif" font-size="10">Flexibility</text>
  <rect x="115" y="125" width="135" height="12" rx="3" fill="#1a4a56"/>
  <rect x="115" y="125" width="135" height="12" rx="3" fill="#e8a87c" opacity="0.8"/>
  <text x="255" y="135" fill="#e8a87c" font-family="system-ui, sans-serif" font-size="9" font-weight="700">BEST</text>

  <text x="42" y="160" fill="#a8c5cc" font-family="system-ui, sans-serif" font-size="10">RAG</text>
  <rect x="115" y="150" width="135" height="12" rx="3" fill="#1a4a56"/>
  <rect x="115" y="150" width="100" height="12" rx="3" fill="#3d8a9a"/>

  <text x="42" y="185" fill="#a8c5cc" font-family="system-ui, sans-serif" font-size="10">Multi-Agent</text>
  <rect x="115" y="175" width="135" height="12" rx="3" fill="#1a4a56"/>
  <rect x="115" y="175" width="90" height="12" rx="3" fill="#3d8a9a"/>

  <text x="42" y="210" fill="#a8c5cc" font-family="system-ui, sans-serif" font-size="10">Ease of Use</text>
  <rect x="115" y="200" width="135" height="12" rx="3" fill="#1a4a56"/>
  <rect x="115" y="200" width="70" height="12" rx="3" fill="#3d8a9a"/>

  <text x="42" y="235" fill="#a8c5cc" font-family="system-ui, sans-serif" font-size="10">Community</text>
  <rect x="115" y="225" width="135" height="12" rx="3" fill="#1a4a56"/>
  <rect x="115" y="225" width="135" height="12" rx="3" fill="#e8a87c" opacity="0.6"/>

  <line x1="42" y1="250" x2="247" y2="250" stroke="#1a4a56" stroke-width="1"/>

  <text x="144" y="272" fill="#ffffff" font-family="system-ui, sans-serif" font-size="11" font-weight="600" text-anchor="middle">Best for</text>
  <text x="144" y="290" fill="#a8c5cc" font-family="system-ui, sans-serif" font-size="10" text-anchor="middle">Complex chains, tool use,</text>
  <text x="144" y="305" fill="#a8c5cc" font-family="system-ui, sans-serif" font-size="10" text-anchor="middle">custom pipelines with</text>
  <text x="144" y="320" fill="#a8c5cc" font-family="system-ui, sans-serif" font-size="10" text-anchor="middle">many integrations</text>

  <rect x="80" y="335" width="130" height="22" rx="4" fill="#e8a87c" opacity="0.12"/>
  <text x="144" y="350" fill="#e8a87c" font-family="system-ui, sans-serif" font-size="10" font-weight="600" text-anchor="middle">Most flexible</text>

  <!-- LlamaIndex -->
  <rect x="278" y="58" width="245" height="330" rx="12" fill="url(#colBg)" stroke="#3d8a9a" stroke-width="1.5"/>
  <text x="400" y="84" fill="#ffffff" font-family="system-ui, sans-serif" font-size="17" font-weight="700" text-anchor="middle">LlamaIndex</text>
  <rect x="351" y="90" width="98" height="18" rx="9" fill="#1a4a56"/>
  <text x="400" y="103" fill="#3d8a9a" font-family="system-ui, sans-serif" font-size="10" text-anchor="middle">&#9733; 37K GitHub</text>

  <!-- Radar-style bars for LlamaIndex -->
  <text x="298" y="135" fill="#a8c5cc" font-family="system-ui, sans-serif" font-size="10">Flexibility</text>
  <rect x="371" y="125" width="135" height="12" rx="3" fill="#1a4a56"/>
  <rect x="371" y="125" width="85" height="12" rx="3" fill="#3d8a9a"/>

  <text x="298" y="160" fill="#a8c5cc" font-family="system-ui, sans-serif" font-size="10">RAG</text>
  <rect x="371" y="150" width="135" height="12" rx="3" fill="#1a4a56"/>
  <rect x="371" y="150" width="135" height="12" rx="3" fill="#e8a87c" opacity="0.8"/>
  <text x="511" y="160" fill="#e8a87c" font-family="system-ui, sans-serif" font-size="9" font-weight="700">BEST</text>

  <text x="298" y="185" fill="#a8c5cc" font-family="system-ui, sans-serif" font-size="10">Multi-Agent</text>
  <rect x="371" y="175" width="135" height="12" rx="3" fill="#1a4a56"/>
  <rect x="371" y="175" width="60" height="12" rx="3" fill="#3d8a9a"/>

  <text x="298" y="210" fill="#a8c5cc" font-family="system-ui, sans-serif" font-size="10">Ease of Use</text>
  <rect x="371" y="200" width="135" height="12" rx="3" fill="#1a4a56"/>
  <rect x="371" y="200" width="105" height="12" rx="3" fill="#3d8a9a"/>

  <text x="298" y="235" fill="#a8c5cc" font-family="system-ui, sans-serif" font-size="10">Community</text>
  <rect x="371" y="225" width="135" height="12" rx="3" fill="#1a4a56"/>
  <rect x="371" y="225" width="90" height="12" rx="3" fill="#3d8a9a"/>

  <line x1="298" y1="250" x2="503" y2="250" stroke="#1a4a56" stroke-width="1"/>

  <text x="400" y="272" fill="#ffffff" font-family="system-ui, sans-serif" font-size="11" font-weight="600" text-anchor="middle">Best for</text>
  <text x="400" y="290" fill="#a8c5cc" font-family="system-ui, sans-serif" font-size="10" text-anchor="middle">Data indexing, document</text>
  <text x="400" y="305" fill="#a8c5cc" font-family="system-ui, sans-serif" font-size="10" text-anchor="middle">Q&amp;A, knowledge base</text>
  <text x="400" y="320" fill="#a8c5cc" font-family="system-ui, sans-serif" font-size="10" text-anchor="middle">retrieval at scale</text>

  <rect x="336" y="335" width="130" height="22" rx="4" fill="#3d8a9a" opacity="0.15"/>
  <text x="400" y="350" fill="#3d8a9a" font-family="system-ui, sans-serif" font-size="10" font-weight="600" text-anchor="middle">RAG leader</text>

  <!-- CrewAI -->
  <rect x="534" y="58" width="245" height="330" rx="12" fill="url(#colBg)" stroke="#3d8a9a" stroke-width="1.5"/>
  <text x="656" y="84" fill="#ffffff" font-family="system-ui, sans-serif" font-size="17" font-weight="700" text-anchor="middle">CrewAI</text>
  <rect x="607" y="90" width="98" height="18" rx="9" fill="#1a4a56"/>
  <text x="656" y="103" fill="#3d8a9a" font-family="system-ui, sans-serif" font-size="10" text-anchor="middle">&#9733; 20K GitHub</text>

  <!-- Radar-style bars for CrewAI -->
  <text x="554" y="135" fill="#a8c5cc" font-family="system-ui, sans-serif" font-size="10">Flexibility</text>
  <rect x="627" y="125" width="135" height="12" rx="3" fill="#1a4a56"/>
  <rect x="627" y="125" width="75" height="12" rx="3" fill="#3d8a9a"/>

  <text x="554" y="160" fill="#a8c5cc" font-family="system-ui, sans-serif" font-size="10">RAG</text>
  <rect x="627" y="150" width="135" height="12" rx="3" fill="#1a4a56"/>
  <rect x="627" y="150" width="65" height="12" rx="3" fill="#3d8a9a"/>

  <text x="554" y="185" fill="#a8c5cc" font-family="system-ui, sans-serif" font-size="10">Multi-Agent</text>
  <rect x="627" y="175" width="135" height="12" rx="3" fill="#1a4a56"/>
  <rect x="627" y="175" width="135" height="12" rx="3" fill="#e8a87c" opacity="0.8"/>
  <text x="767" y="185" fill="#e8a87c" font-family="system-ui, sans-serif" font-size="9" font-weight="700">BEST</text>

  <text x="554" y="210" fill="#a8c5cc" font-family="system-ui, sans-serif" font-size="10">Ease of Use</text>
  <rect x="627" y="200" width="135" height="12" rx="3" fill="#1a4a56"/>
  <rect x="627" y="200" width="120" height="12" rx="3" fill="#3d8a9a"/>

  <text x="554" y="235" fill="#a8c5cc" font-family="system-ui, sans-serif" font-size="10">Community</text>
  <rect x="627" y="225" width="135" height="12" rx="3" fill="#1a4a56"/>
  <rect x="627" y="225" width="65" height="12" rx="3" fill="#3d8a9a"/>

  <line x1="554" y1="250" x2="759" y2="250" stroke="#1a4a56" stroke-width="1"/>

  <text x="656" y="272" fill="#ffffff" font-family="system-ui, sans-serif" font-size="11" font-weight="600" text-anchor="middle">Best for</text>
  <text x="656" y="290" fill="#a8c5cc" font-family="system-ui, sans-serif" font-size="10" text-anchor="middle">Multi-agent systems,</text>
  <text x="656" y="305" fill="#a8c5cc" font-family="system-ui, sans-serif" font-size="10" text-anchor="middle">role-based AI teams,</text>
  <text x="656" y="320" fill="#a8c5cc" font-family="system-ui, sans-serif" font-size="10" text-anchor="middle">autonomous workflows</text>

  <rect x="592" y="335" width="130" height="22" rx="4" fill="#3d8a9a" opacity="0.15"/>
  <text x="656" y="350" fill="#3d8a9a" font-family="system-ui, sans-serif" font-size="10" font-weight="600" text-anchor="middle">Agent pioneer</text>
</svg>