<svg xmlns="http://www.w3.org/2000/svg" viewBox="0 0 800 400">
  <rect width="800" height="400" fill="#0f2d35" rx="12"/>
  <text x="400" y="36" text-anchor="middle" fill="#ffffff" font-family="system-ui,sans-serif" font-size="18" font-weight="700">AI Coding Tools</text>
  <text x="400" y="58" text-anchor="middle" fill="#6a8a94" font-family="system-ui,sans-serif" font-size="11">Top 4 Compared</text>
<rect x="50" y="75" width="700" height="44" rx="6" fill="#132f38" stroke="#1a4a56" stroke-width="1"/><text x="70" y="92" fill="#e8a87c" font-family="system-ui,sans-serif" font-size="11" font-weight="700">#1</text><text x="100" y="92" fill="#ffffff" font-family="system-ui,sans-serif" font-size="12" font-weight="600">Cursor</text><rect x="100" y="99" width="506" height="10" rx="5" fill="#e8a87c" opacity="1"/><text x="616" y="108" fill="#a8c5cc" font-family="system-ui,sans-serif" font-size="9">92/100</text><rect x="50" y="127" width="700" height="44" rx="6" fill="#132f38" stroke="#1a4a56" stroke-width="1"/><text x="70" y="144" fill="#a8c5cc" font-family="system-ui,sans-serif" font-size="11" font-weight="700">#2</text><text x="100" y="144" fill="#ffffff" font-family="system-ui,sans-serif" font-size="12" font-weight="600">Claude Code</text><rect x="100" y="151" width="462" height="10" rx="5" fill="#3d8a9a" opacity="0.7"/><text x="572" y="160" fill="#a8c5cc" font-family="system-ui,sans-serif" font-size="9">84/100</text><rect x="50" y="179" width="700" height="44" rx="6" fill="#132f38" stroke="#1a4a56" stroke-width="1"/><text x="70" y="196" fill="#a8c5cc" font-family="system-ui,sans-serif" font-size="11" font-weight="700">#3</text><text x="100" y="196" fill="#ffffff" font-family="system-ui,sans-serif" font-size="12" font-weight="600">Copilot</text><rect x="100" y="203" width="434" height="10" rx="5" fill="#3d8a9a" opacity="0.7"/><text x="544" y="212" fill="#a8c5cc" font-family="system-ui,sans-serif" font-size="9">79/100</text><rect x="50" y="231" width="700" height="44" rx="6" fill="#132f38" stroke="#1a4a56" stroke-width="1"/><text x="70" y="248" fill="#a8c5cc" font-family="system-ui,sans-serif" font-size="11" font-weight="700">#4</text><text x="100" y="248" fill="#ffffff" font-family="system-ui,sans-serif" font-size="12" font-weight="600">Windsurf</text><rect x="100" y="255" width="385" height="10" rx="5" fill="#3d8a9a" opacity="0.7"/><text x="495" y="264" fill="#a8c5cc" font-family="system-ui,sans-serif" font-size="9">70/100</text></svg>