<svg xmlns="http://www.w3.org/2000/svg" viewBox="0 0 800 400">
  <rect width="800" height="400" fill="#0f2d35" rx="12"/>
  <text x="400" y="36" text-anchor="middle" fill="#ffffff" font-family="system-ui,sans-serif" font-size="18" font-weight="700">AI Engineer Interview Questions</text>
  
<rect x="50" y="80" width="350" height="130" rx="8" fill="#132f38" stroke="#1a4a56" stroke-width="1"/><circle cx="80" cy="110" r="16" fill="#3d8a9a"/><text x="80" y="115" text-anchor="middle" fill="#ffffff" font-family="system-ui,sans-serif" font-size="12" font-weight="700">1</text><text x="105" y="115" fill="#ffffff" font-family="system-ui,sans-serif" font-size="13" font-weight="600">System Design</text><rect x="65" y="135" width="320" height="1" fill="#1a4a56"/><text x="65" y="160" fill="#6a8a94" font-family="system-ui,sans-serif" font-size="10">Key concept in this guide</text><rect x="420" y="80" width="350" height="130" rx="8" fill="#132f38" stroke="#1a4a56" stroke-width="1"/><circle cx="450" cy="110" r="16" fill="#3d8a9a"/><text x="450" y="115" text-anchor="middle" fill="#ffffff" font-family="system-ui,sans-serif" font-size="12" font-weight="700">2</text><text x="475" y="115" fill="#ffffff" font-family="system-ui,sans-serif" font-size="13" font-weight="600">ML Fundamentals</text><rect x="435" y="135" width="320" height="1" fill="#1a4a56"/><text x="435" y="160" fill="#6a8a94" font-family="system-ui,sans-serif" font-size="10">Key concept in this guide</text><rect x="50" y="230" width="350" height="130" rx="8" fill="#132f38" stroke="#1a4a56" stroke-width="1"/><circle cx="80" cy="260" r="16" fill="#3d8a9a"/><text x="80" y="265" text-anchor="middle" fill="#ffffff" font-family="system-ui,sans-serif" font-size="12" font-weight="700">3</text><text x="105" y="265" fill="#ffffff" font-family="system-ui,sans-serif" font-size="13" font-weight="600">Coding Challenges</text><rect x="65" y="285" width="320" height="1" fill="#1a4a56"/><text x="65" y="310" fill="#6a8a94" font-family="system-ui,sans-serif" font-size="10">Key concept in this guide</text><rect x="420" y="230" width="350" height="130" rx="8" fill="#132f38" stroke="#1a4a56" stroke-width="1"/><circle cx="450" cy="260" r="16" fill="#3d8a9a"/><text x="450" y="265" text-anchor="middle" fill="#ffffff" font-family="system-ui,sans-serif" font-size="12" font-weight="700">4</text><text x="475" y="265" fill="#ffffff" font-family="system-ui,sans-serif" font-size="13" font-weight="600">Behavioral</text><rect x="435" y="285" width="320" height="1" fill="#1a4a56"/><text x="435" y="310" fill="#6a8a94" font-family="system-ui,sans-serif" font-size="10">Key concept in this guide</text></svg>