<svg xmlns="http://www.w3.org/2000/svg" viewBox="0 0 800 400">
  <rect width="800" height="400" fill="#0f2d35" rx="12"/>
  <line x1="696" y1="226" x2="711.9668451095781" y2="290.0395179342158" stroke="#60a5fa" opacity="0.4" stroke-width="2"/><circle cx="711.9668451095781" cy="290.0395179342158" r="3" fill="#60a5fa" opacity="0.5"/><line x1="533" y1="279" x2="529.4934909317228" y2="345.90817882855646" stroke="#60a5fa" opacity="0.4" stroke-width="2"/><circle cx="529.4934909317228" cy="345.90817882855646" r="3" fill="#60a5fa" opacity="0.5"/><line x1="570" y1="82" x2="546.7426302538545" y2="145.8990982134418" stroke="#60a5fa" opacity="0.4" stroke-width="2"/><circle cx="546.7426302538545" cy="145.8990982134418" r="3" fill="#60a5fa" opacity="0.5"/><line x1="607" y1="135" x2="565.4747634025086" y2="190.1058501932632" stroke="#60a5fa" opacity="0.4" stroke-width="2"/><circle cx="565.4747634025086" cy="190.1058501932632" r="3" fill="#60a5fa" opacity="0.5"/><line x1="644" y1="188" x2="619.7294901687516" y2="205.6335575687742" stroke="#60a5fa" opacity="0.4" stroke-width="2"/><circle cx="619.7294901687516" cy="205.6335575687742" r="3" fill="#60a5fa" opacity="0.5"/><line x1="681" y1="241" x2="651.6889241564212" y2="251.09261278817186" stroke="#60a5fa" opacity="0.4" stroke-width="2"/><circle cx="651.6889241564212" cy="251.09261278817186" r="3" fill="#60a5fa" opacity="0.5"/>
  <rect x="40" y="40" width="400" height="320" rx="12" fill="#132f38" opacity="0.95"/>
  <rect x="40" y="40" width="6" height="320" rx="3" fill="#60a5fa"/>
  <rect x="60" y="60" width="90" height="22" rx="11" fill="#60a5fa" opacity="0.2"/>
  <text x="105" y="76" text-anchor="middle" fill="#60a5fa" font-family="system-ui,sans-serif" font-size="9" font-weight="700">VECTOR &amp; EMBEDDINGS</text>
  <text x="60" y="120" fill="#ffffff" font-family="system-ui,sans-serif" font-size="22" font-weight="700">Semantic Search</text>
  <rect x="60" y="140" width="360" height="1" fill="#1a4a56" opacity="0.5"/>
  <text x="60" y="170" fill="#a8c5cc" font-family="system-ui,sans-serif" font-size="12">Definition, examples, and practical</text>
  <text x="60" y="190" fill="#a8c5cc" font-family="system-ui,sans-serif" font-size="12">applications in AI/ML engineering.</text>
  <rect x="60" y="220" width="120" height="30" rx="6" fill="#1a4a56"/>
  <text x="120" y="240" text-anchor="middle" fill="#ffffff" font-family="system-ui,sans-serif" font-size="11" font-weight="600">Learn More</text>
  <text x="60" y="290" fill="#6a8a94" font-family="system-ui,sans-serif" font-size="10">Part of the PE Collective AI Glossary</text>
  <text x="60" y="310" fill="#6a8a94" font-family="system-ui,sans-serif" font-size="10">120+ terms defined with real-world context</text>
</svg>