<svg xmlns="http://www.w3.org/2000/svg" viewBox="0 0 800 400">
  <rect width="800" height="400" fill="#0f2d35" rx="12"/>
  <line x1="501" y1="231" x2="485.97090177236356" y2="203.88678907867873" stroke="#60a5fa" opacity="0.4" stroke-width="2"/><circle cx="485.97090177236356" cy="203.88678907867873" r="3" fill="#60a5fa" opacity="0.5"/><line x1="538" y1="284" x2="531.3468258938317" y2="252.69927677651822" stroke="#60a5fa" opacity="0.4" stroke-width="2"/><circle cx="531.3468258938317" cy="252.69927677651822" r="3" fill="#60a5fa" opacity="0.5"/><line x1="575" y1="87" x2="577.8761395106727" y2="54.125574962972394" stroke="#60a5fa" opacity="0.4" stroke-width="2"/><circle cx="577.8761395106727" cy="54.125574962972394" r="3" fill="#60a5fa" opacity="0.5"/><line x1="612" y1="140" x2="624.736624176141" y2="108.47574894472922" stroke="#60a5fa" opacity="0.4" stroke-width="2"/><circle cx="624.736624176141" cy="108.47574894472922" r="3" fill="#60a5fa" opacity="0.5"/><line x1="649" y1="193" x2="671.0262136867443" y2="165.79989134900603" stroke="#60a5fa" opacity="0.4" stroke-width="2"/><circle cx="671.0262136867443" cy="165.79989134900603" r="3" fill="#60a5fa" opacity="0.5"/><line x1="686" y1="246" x2="715.8453526119815" y2="225.86905547505313" stroke="#60a5fa" opacity="0.4" stroke-width="2"/><circle cx="715.8453526119815" cy="225.86905547505313" r="3" fill="#60a5fa" opacity="0.5"/>
  <rect x="40" y="40" width="400" height="320" rx="12" fill="#132f38" opacity="0.95"/>
  <rect x="40" y="40" width="6" height="320" rx="3" fill="#60a5fa"/>
  <rect x="60" y="60" width="90" height="22" rx="11" fill="#60a5fa" opacity="0.2"/>
  <text x="105" y="76" text-anchor="middle" fill="#60a5fa" font-family="system-ui,sans-serif" font-size="9" font-weight="700">VECTOR &amp; EMBEDDINGS</text>
  <text x="60" y="120" fill="#ffffff" font-family="system-ui,sans-serif" font-size="22" font-weight="700">Embeddings</text>
  <rect x="60" y="140" width="360" height="1" fill="#1a4a56" opacity="0.5"/>
  <text x="60" y="170" fill="#a8c5cc" font-family="system-ui,sans-serif" font-size="12">Definition, examples, and practical</text>
  <text x="60" y="190" fill="#a8c5cc" font-family="system-ui,sans-serif" font-size="12">applications in AI/ML engineering.</text>
  <rect x="60" y="220" width="120" height="30" rx="6" fill="#1a4a56"/>
  <text x="120" y="240" text-anchor="middle" fill="#ffffff" font-family="system-ui,sans-serif" font-size="11" font-weight="600">Learn More</text>
  <text x="60" y="290" fill="#6a8a94" font-family="system-ui,sans-serif" font-size="10">Part of the PE Collective AI Glossary</text>
  <text x="60" y="310" fill="#6a8a94" font-family="system-ui,sans-serif" font-size="10">120+ terms defined with real-world context</text>
</svg>