<svg xmlns="http://www.w3.org/2000/svg" viewBox="0 0 800 400">
  <rect width="800" height="400" fill="#0f2d35" rx="12"/>
  <rect x="480" y="90" width="131" height="40" rx="12" fill="#4ade80" opacity="0.15"/><rect x="580" y="160" width="132" height="40" rx="12" fill="#4ade80" opacity="0.25"/><rect x="480" y="230" width="133" height="40" rx="12" fill="#4ade80" opacity="0.35"/><rect x="580" y="300" width="134" height="40" rx="12" fill="#4ade80" opacity="0.45000000000000007"/>
  <rect x="40" y="40" width="400" height="320" rx="12" fill="#132f38" opacity="0.95"/>
  <rect x="40" y="40" width="6" height="320" rx="3" fill="#4ade80"/>
  <rect x="60" y="60" width="90" height="22" rx="11" fill="#4ade80" opacity="0.2"/>
  <text x="105" y="76" text-anchor="middle" fill="#4ade80" font-family="system-ui,sans-serif" font-size="9" font-weight="700">PROMPT ENGINEERING</text>
  <text x="60" y="120" fill="#ffffff" font-family="system-ui,sans-serif" font-size="22" font-weight="700">Retrieval Augmented Generation</text>
  <rect x="60" y="140" width="360" height="1" fill="#1a4a56" opacity="0.5"/>
  <text x="60" y="170" fill="#a8c5cc" font-family="system-ui,sans-serif" font-size="12">Definition, examples, and practical</text>
  <text x="60" y="190" fill="#a8c5cc" font-family="system-ui,sans-serif" font-size="12">applications in AI/ML engineering.</text>
  <rect x="60" y="220" width="120" height="30" rx="6" fill="#1a4a56"/>
  <text x="120" y="240" text-anchor="middle" fill="#ffffff" font-family="system-ui,sans-serif" font-size="11" font-weight="600">Learn More</text>
  <text x="60" y="290" fill="#6a8a94" font-family="system-ui,sans-serif" font-size="10">Part of the PE Collective AI Glossary</text>
  <text x="60" y="310" fill="#6a8a94" font-family="system-ui,sans-serif" font-size="10">120+ terms defined with real-world context</text>
</svg>