<svg xmlns="http://www.w3.org/2000/svg" viewBox="0 0 800 400">
  <rect width="800" height="400" fill="#0f2d35" rx="12"/>
  <line x1="607" y1="237" x2="662.5390936927583" y2="224.17778990239967" stroke="#60a5fa" opacity="0.4" stroke-width="2"/><circle cx="662.5390936927583" cy="224.17778990239967" r="3" fill="#60a5fa" opacity="0.5"/><line x1="644" y1="290" x2="701.8587149150698" y2="294.04587547715926" stroke="#60a5fa" opacity="0.4" stroke-width="2"/><circle cx="701.8587149150698" cy="294.04587547715926" r="3" fill="#60a5fa" opacity="0.5"/><line x1="681" y1="93" x2="736.0812451633349" y2="114.14370902317272" stroke="#60a5fa" opacity="0.4" stroke-width="2"/><circle cx="736.0812451633349" cy="114.14370902317272" r="3" fill="#60a5fa" opacity="0.5"/><line x1="518" y1="146" x2="565.2806452164033" y2="182.9396885195395" stroke="#60a5fa" opacity="0.4" stroke-width="2"/><circle cx="565.2806452164033" cy="182.9396885195395" r="3" fill="#60a5fa" opacity="0.5"/><line x1="555" y1="199" x2="589.9881626174138" y2="248.9682747016285" stroke="#60a5fa" opacity="0.4" stroke-width="2"/><circle cx="589.9881626174138" cy="248.9682747016285" r="3" fill="#60a5fa" opacity="0.5"/><line x1="592" y1="252" x2="611.1590536512467" y2="310.9655040102995" stroke="#60a5fa" opacity="0.4" stroke-width="2"/><circle cx="611.1590536512467" cy="310.9655040102995" r="3" fill="#60a5fa" opacity="0.5"/>
  <rect x="40" y="40" width="400" height="320" rx="12" fill="#132f38" opacity="0.95"/>
  <rect x="40" y="40" width="6" height="320" rx="3" fill="#60a5fa"/>
  <rect x="60" y="60" width="90" height="22" rx="11" fill="#60a5fa" opacity="0.2"/>
  <text x="105" y="76" text-anchor="middle" fill="#60a5fa" font-family="system-ui,sans-serif" font-size="9" font-weight="700">VECTOR & EMBEDDINGS</text>
  <text x="60" y="120" fill="#ffffff" font-family="system-ui,sans-serif" font-size="22" font-weight="700">Vector Database</text>
  <rect x="60" y="140" width="360" height="1" fill="#1a4a56" opacity="0.5"/>
  <text x="60" y="170" fill="#a8c5cc" font-family="system-ui,sans-serif" font-size="12">Definition, examples, and practical</text>
  <text x="60" y="190" fill="#a8c5cc" font-family="system-ui,sans-serif" font-size="12">applications in AI/ML engineering.</text>
  <rect x="60" y="220" width="120" height="30" rx="6" fill="#1a4a56"/>
  <text x="120" y="240" text-anchor="middle" fill="#ffffff" font-family="system-ui,sans-serif" font-size="11" font-weight="600">Learn More</text>
  <text x="60" y="290" fill="#6a8a94" font-family="system-ui,sans-serif" font-size="10">Part of the PE Collective AI Glossary</text>
  <text x="60" y="310" fill="#6a8a94" font-family="system-ui,sans-serif" font-size="10">120+ terms defined with real-world context</text>
</svg>