<svg xmlns="http://www.w3.org/2000/svg" viewBox="0 0 800 400">
  <rect width="800" height="400" fill="#0f2d35" rx="12"/>
  <line x1="661" y1="291" x2="684.395996986906" y2="311.3378298987057" stroke="#60a5fa" opacity="0.4" stroke-width="2"/><circle cx="684.395996986906" cy="311.3378298987057" r="3" fill="#60a5fa" opacity="0.5"/><line x1="698" y1="94" x2="714.9574164554625" y2="121.13753907700563" stroke="#60a5fa" opacity="0.4" stroke-width="2"/><circle cx="714.9574164554625" cy="121.13753907700563" r="3" fill="#60a5fa" opacity="0.5"/><line x1="535" y1="147" x2="543.5410284883832" y2="178.87555226753926" stroke="#60a5fa" opacity="0.4" stroke-width="2"/><circle cx="543.5410284883832" cy="178.87555226753926" r="3" fill="#60a5fa" opacity="0.5"/><line x1="572" y1="200" x2="570.813417112115" y2="233.97928811864927" stroke="#60a5fa" opacity="0.4" stroke-width="2"/><circle cx="570.813417112115" cy="233.97928811864927" r="3" fill="#60a5fa" opacity="0.5"/><line x1="609" y1="253" x2="597.6051145939995" y2="286.0931501459761" stroke="#60a5fa" opacity="0.4" stroke-width="2"/><circle cx="597.6051145939995" cy="286.0931501459761" r="3" fill="#60a5fa" opacity="0.5"/><line x1="646" y1="306" x2="624.839730917471" y2="335.1246117974981" stroke="#60a5fa" opacity="0.4" stroke-width="2"/><circle cx="624.839730917471" cy="335.1246117974981" r="3" fill="#60a5fa" opacity="0.5"/>
  <rect x="40" y="40" width="400" height="320" rx="12" fill="#132f38" opacity="0.95"/>
  <rect x="40" y="40" width="6" height="320" rx="3" fill="#60a5fa"/>
  <rect x="60" y="60" width="90" height="22" rx="11" fill="#60a5fa" opacity="0.2"/>
  <text x="105" y="76" text-anchor="middle" fill="#60a5fa" font-family="system-ui,sans-serif" font-size="9" font-weight="700">VECTOR & EMBEDDINGS</text>
  <text x="60" y="120" fill="#ffffff" font-family="system-ui,sans-serif" font-size="22" font-weight="700">Dimensionality Reduction</text>
  <rect x="60" y="140" width="360" height="1" fill="#1a4a56" opacity="0.5"/>
  <text x="60" y="170" fill="#a8c5cc" font-family="system-ui,sans-serif" font-size="12">Definition, examples, and practical</text>
  <text x="60" y="190" fill="#a8c5cc" font-family="system-ui,sans-serif" font-size="12">applications in AI/ML engineering.</text>
  <rect x="60" y="220" width="120" height="30" rx="6" fill="#1a4a56"/>
  <text x="120" y="240" text-anchor="middle" fill="#ffffff" font-family="system-ui,sans-serif" font-size="11" font-weight="600">Learn More</text>
  <text x="60" y="290" fill="#6a8a94" font-family="system-ui,sans-serif" font-size="10">Part of the PE Collective AI Glossary</text>
  <text x="60" y="310" fill="#6a8a94" font-family="system-ui,sans-serif" font-size="10">120+ terms defined with real-world context</text>
</svg>