<svg xmlns="http://www.w3.org/2000/svg" viewBox="0 0 800 400">
  <rect width="800" height="400" fill="#0f2d35" rx="12"/>
  <circle cx="500" cy="100" r="11" fill="#3d8a9a" opacity="0.5"/><line x1="500" y1="111" x2="530" y2="150" stroke="#3d8a9a" opacity="0.15"/><circle cx="500" cy="200" r="12" fill="#3d8a9a" opacity="0.5"/><line x1="500" y1="212" x2="530" y2="250" stroke="#3d8a9a" opacity="0.15"/><circle cx="500" cy="300" r="13" fill="#3d8a9a" opacity="0.5"/><circle cx="560" cy="100" r="12" fill="#3d8a9a" opacity="0.5"/><line x1="560" y1="112" x2="590" y2="150" stroke="#3d8a9a" opacity="0.15"/><circle cx="560" cy="200" r="13" fill="#3d8a9a" opacity="0.6000000000000001"/><line x1="560" y1="213" x2="590" y2="250" stroke="#3d8a9a" opacity="0.15"/><circle cx="560" cy="300" r="14" fill="#3d8a9a" opacity="0.7"/><circle cx="620" cy="100" r="13" fill="#3d8a9a" opacity="0.5"/><line x1="620" y1="113" x2="650" y2="150" stroke="#3d8a9a" opacity="0.15"/><circle cx="620" cy="200" r="14" fill="#3d8a9a" opacity="0.7"/><line x1="620" y1="214" x2="650" y2="250" stroke="#3d8a9a" opacity="0.15"/><circle cx="620" cy="300" r="15" fill="#3d8a9a" opacity="0.4"/><circle cx="680" cy="100" r="14" fill="#3d8a9a" opacity="0.5"/><line x1="680" y1="114" x2="710" y2="150" stroke="#3d8a9a" opacity="0.15"/><circle cx="680" cy="200" r="15" fill="#3d8a9a" opacity="0.3"/><line x1="680" y1="215" x2="710" y2="250" stroke="#3d8a9a" opacity="0.15"/><circle cx="680" cy="300" r="8" fill="#3d8a9a" opacity="0.6000000000000001"/><circle cx="740" cy="100" r="15" fill="#3d8a9a" opacity="0.5"/><line x1="740" y1="115" x2="770" y2="150" stroke="#3d8a9a" opacity="0.15"/><circle cx="740" cy="200" r="8" fill="#3d8a9a" opacity="0.4"/><line x1="740" y1="208" x2="770" y2="250" stroke="#3d8a9a" opacity="0.15"/><circle cx="740" cy="300" r="9" fill="#3d8a9a" opacity="0.3"/>
  <rect x="40" y="40" width="400" height="320" rx="12" fill="#132f38" opacity="0.95"/>
  <rect x="40" y="40" width="6" height="320" rx="3" fill="#3d8a9a"/>
  <rect x="60" y="60" width="90" height="22" rx="11" fill="#3d8a9a" opacity="0.2"/>
  <text x="105" y="76" text-anchor="middle" fill="#3d8a9a" font-family="system-ui,sans-serif" font-size="9" font-weight="700">NEURAL NETWORKS</text>
  <text x="60" y="120" fill="#ffffff" font-family="system-ui,sans-serif" font-size="22" font-weight="700">Classifier</text>
  <rect x="60" y="140" width="360" height="1" fill="#1a4a56" opacity="0.5"/>
  <text x="60" y="170" fill="#a8c5cc" font-family="system-ui,sans-serif" font-size="12">Definition, examples, and practical</text>
  <text x="60" y="190" fill="#a8c5cc" font-family="system-ui,sans-serif" font-size="12">applications in AI/ML engineering.</text>
  <rect x="60" y="220" width="120" height="30" rx="6" fill="#1a4a56"/>
  <text x="120" y="240" text-anchor="middle" fill="#ffffff" font-family="system-ui,sans-serif" font-size="11" font-weight="600">Learn More</text>
  <text x="60" y="290" fill="#6a8a94" font-family="system-ui,sans-serif" font-size="10">Part of the PE Collective AI Glossary</text>
  <text x="60" y="310" fill="#6a8a94" font-family="system-ui,sans-serif" font-size="10">120+ terms defined with real-world context</text>
</svg>