<svg xmlns="http://www.w3.org/2000/svg" viewBox="0 0 1200 500" fill="none">
  <rect width="1200" height="500" fill="#0f2d35"/>
  <text x="600" y="40" font-family="system-ui,sans-serif" font-size="20" font-weight="700" fill="#fff" text-anchor="middle">Industry Intelligence Dashboard</text>
  <g transform="translate(40,60)">
    <rect width="360" height="160" rx="10" fill="#132f38" stroke="#1a3f4a" stroke-width="1"/>
    <text x="20" y="28" font-family="system-ui,sans-serif" font-size="13" font-weight="600" fill="#3d8a9a">Salary Trends</text>
    <polyline points="20,130 60,110 100,115 140,90 180,85 220,70 260,65 300,55 340,50" stroke="#3d8a9a" stroke-width="2.5" fill="none"/>
    <polyline points="20,120 60,118 100,110 140,105 180,100 220,95 260,90 300,88 340,82" stroke="#e8a87c" stroke-width="2" fill="none" stroke-dasharray="4,3"/>
    <text x="20" y="152" font-family="system-ui,sans-serif" font-size="10" fill="#8a9a9a">12-month trend</text>
  </g>
  <g transform="translate(420,60)">
    <rect width="360" height="160" rx="10" fill="#132f38" stroke="#1a3f4a" stroke-width="1"/>
    <text x="20" y="28" font-family="system-ui,sans-serif" font-size="13" font-weight="600" fill="#e8a87c">Market Size</text>
    <rect x="20" y="48" width="80" height="80" rx="6" fill="rgba(61,138,154,0.15)"/>
    <text x="60" y="88" font-family="system-ui,sans-serif" font-size="24" font-weight="800" fill="#3d8a9a" text-anchor="middle">$2.4T</text>
    <text x="60" y="108" font-family="system-ui,sans-serif" font-size="10" fill="#8a9a9a" text-anchor="middle">Total market</text>
    <rect x="120" y="48" width="80" height="80" rx="6" fill="rgba(232,168,124,0.1)"/>
    <text x="160" y="88" font-family="system-ui,sans-serif" font-size="24" font-weight="800" fill="#e8a87c" text-anchor="middle">14%</text>
    <text x="160" y="108" font-family="system-ui,sans-serif" font-size="10" fill="#8a9a9a" text-anchor="middle">YoY growth</text>
    <rect x="220" y="48" width="80" height="80" rx="6" fill="rgba(61,138,154,0.15)"/>
    <text x="260" y="88" font-family="system-ui,sans-serif" font-size="24" font-weight="800" fill="#3d8a9a" text-anchor="middle">50K+</text>
    <text x="260" y="108" font-family="system-ui,sans-serif" font-size="10" fill="#8a9a9a" text-anchor="middle">Companies</text>
  </g>
  <g transform="translate(800,60)">
    <rect width="360" height="160" rx="10" fill="#132f38" stroke="#1a3f4a" stroke-width="1"/>
    <text x="20" y="28" font-family="system-ui,sans-serif" font-size="13" font-weight="600" fill="#3d8a9a">Top Roles</text>
    <g transform="translate(20,44)">
      <rect width="320" height="24" rx="4" fill="rgba(61,138,154,0.1)"/>
      <rect width="280" height="24" rx="4" fill="rgba(61,138,154,0.2)"/>
      <text x="8" y="16" font-family="system-ui,sans-serif" font-size="11" fill="#fff">VP of Engineering</text>
    </g>
    <g transform="translate(20,74)">
      <rect width="320" height="24" rx="4" fill="rgba(61,138,154,0.1)"/>
      <rect width="240" height="24" rx="4" fill="rgba(232,168,124,0.15)"/>
      <text x="8" y="16" font-family="system-ui,sans-serif" font-size="11" fill="#fff">Director of Sales</text>
    </g>
    <g transform="translate(20,104)">
      <rect width="320" height="24" rx="4" fill="rgba(61,138,154,0.1)"/>
      <rect width="200" height="24" rx="4" fill="rgba(61,138,154,0.2)"/>
      <text x="8" y="16" font-family="system-ui,sans-serif" font-size="11" fill="#fff">Chief Revenue Officer</text>
    </g>
  </g>
  <!-- Bottom section -->
  <g transform="translate(40,250)">
    <rect width="1120" height="90" rx="10" fill="#132f38"/>
    <g transform="translate(60,16)">
      <text x="0" y="22" font-family="system-ui,sans-serif" font-size="28" font-weight="800" fill="#3d8a9a">12K+</text>
      <text x="0" y="42" font-family="system-ui,sans-serif" font-size="11" fill="#8a9a9a">Job postings tracked</text>
    </g>
    <g transform="translate(280,16)">
      <text x="0" y="22" font-family="system-ui,sans-serif" font-size="28" font-weight="800" fill="#fff">500+</text>
      <text x="0" y="42" font-family="system-ui,sans-serif" font-size="11" fill="#8a9a9a">Companies monitored</text>
    </g>
    <g transform="translate(500,16)">
      <text x="0" y="22" font-family="system-ui,sans-serif" font-size="28" font-weight="800" fill="#e8a87c">Weekly</text>
      <text x="0" y="42" font-family="system-ui,sans-serif" font-size="11" fill="#8a9a9a">Data updates</text>
    </g>
    <g transform="translate(740,16)">
      <text x="0" y="22" font-family="system-ui,sans-serif" font-size="28" font-weight="800" fill="#3d8a9a">Free</text>
      <text x="0" y="42" font-family="system-ui,sans-serif" font-size="11" fill="#8a9a9a">Newsletter delivery</text>
    </g>
  </g>
  <g transform="translate(40,370)">
    <rect width="1120" height="100" rx="10" fill="#132f38" stroke="#3d8a9a" stroke-width="1"/>
    <text x="560" y="32" font-family="system-ui,sans-serif" font-size="15" font-weight="700" fill="#fff" text-anchor="middle">What We Track</text>
    <g transform="translate(60,50)">
      <circle cx="8" cy="8" r="8" fill="#3d8a9a" opacity="0.3"/>
      <circle cx="8" cy="8" r="4" fill="#3d8a9a"/>
      <text x="24" y="12" font-family="system-ui,sans-serif" font-size="12" fill="#dde0e6">Salary ranges</text>
    </g>
    <g transform="translate(240,50)">
      <circle cx="8" cy="8" r="8" fill="#e8a87c" opacity="0.3"/>
      <circle cx="8" cy="8" r="4" fill="#e8a87c"/>
      <text x="24" y="12" font-family="system-ui,sans-serif" font-size="12" fill="#dde0e6">Hiring velocity</text>
    </g>
    <g transform="translate(440,50)">
      <circle cx="8" cy="8" r="8" fill="#3d8a9a" opacity="0.3"/>
      <circle cx="8" cy="8" r="4" fill="#3d8a9a"/>
      <text x="24" y="12" font-family="system-ui,sans-serif" font-size="12" fill="#dde0e6">Job descriptions</text>
    </g>
    <g transform="translate(640,50)">
      <circle cx="8" cy="8" r="8" fill="#e8a87c" opacity="0.3"/>
      <circle cx="8" cy="8" r="4" fill="#e8a87c"/>
      <text x="24" y="12" font-family="system-ui,sans-serif" font-size="12" fill="#dde0e6">Company signals</text>
    </g>
    <g transform="translate(860,50)">
      <circle cx="8" cy="8" r="8" fill="#3d8a9a" opacity="0.3"/>
      <circle cx="8" cy="8" r="4" fill="#3d8a9a"/>
      <text x="24" y="12" font-family="system-ui,sans-serif" font-size="12" fill="#dde0e6">Market trends</text>
    </g>
  </g>
</svg>