<svg xmlns="http://www.w3.org/2000/svg" viewBox="0 0 800 400">
  <rect width="800" height="400" fill="#0f2d35" rx="12"/>
  <rect x="40" y="40" width="720" height="80" rx="10" fill="#132f38" stroke="#1a4a56" stroke-width="1"/>
  <text x="400" y="75" text-anchor="middle" fill="#ffffff" font-family="system-ui,sans-serif" font-size="18" font-weight="700">Research Engineer Jobs - 8 Jobs</text>
  <text x="400" y="100" text-anchor="middle" fill="#6a8a94" font-family="system-ui,sans-serif" font-size="11">Updated weekly from the PE Collective job board</text>
  <rect x="50" y="140" width="700" height="52" rx="8" fill="#132f38" stroke="#1a4a56" stroke-width="1"/>
  <circle cx="85" cy="166" r="16" fill="#3d8a9a" opacity="0.3"/>
  <text x="85" y="171" text-anchor="middle" fill="#ffffff" font-family="system-ui,sans-serif" font-size="11" font-weight="700">A</text>
  <rect x="110" y="150" width="200" height="12" rx="3" fill="#2a6a7a" opacity="0.4"/>
  <rect x="110" y="170" width="140" height="8" rx="3" fill="#1a4a56" opacity="0.3"/>
  <rect x="600" y="155" width="80" height="22" rx="6" fill="#e8a87c" opacity="0.15"/>
  <text x="640" y="170" text-anchor="middle" fill="#e8a87c" font-family="system-ui,sans-serif" font-size="9">APPLY</text>
  <rect x="50" y="202" width="700" height="52" rx="8" fill="#132f38" stroke="#1a4a56" stroke-width="1"/>
  <circle cx="85" cy="228" r="16" fill="#3d8a9a" opacity="0.3"/>
  <text x="85" y="233" text-anchor="middle" fill="#ffffff" font-family="system-ui,sans-serif" font-size="11" font-weight="700">B</text>
  <rect x="110" y="212" width="200" height="12" rx="3" fill="#2a6a7a" opacity="0.4"/>
  <rect x="110" y="232" width="140" height="8" rx="3" fill="#1a4a56" opacity="0.3"/>
  <rect x="600" y="217" width="80" height="22" rx="6" fill="#e8a87c" opacity="0.15"/>
  <text x="640" y="232" text-anchor="middle" fill="#e8a87c" font-family="system-ui,sans-serif" font-size="9">APPLY</text>
  <rect x="50" y="264" width="700" height="52" rx="8" fill="#132f38" stroke="#1a4a56" stroke-width="1"/>
  <circle cx="85" cy="290" r="16" fill="#3d8a9a" opacity="0.3"/>
  <text x="85" y="295" text-anchor="middle" fill="#ffffff" font-family="system-ui,sans-serif" font-size="11" font-weight="700">C</text>
  <rect x="110" y="274" width="200" height="12" rx="3" fill="#2a6a7a" opacity="0.4"/>
  <rect x="110" y="294" width="140" height="8" rx="3" fill="#1a4a56" opacity="0.3"/>
  <rect x="600" y="279" width="80" height="22" rx="6" fill="#e8a87c" opacity="0.15"/>
  <text x="640" y="294" text-anchor="middle" fill="#e8a87c" font-family="system-ui,sans-serif" font-size="9">APPLY</text>
  <rect x="50" y="326" width="700" height="52" rx="8" fill="#132f38" stroke="#1a4a56" stroke-width="1"/>
  <circle cx="85" cy="352" r="16" fill="#3d8a9a" opacity="0.3"/>
  <text x="85" y="357" text-anchor="middle" fill="#ffffff" font-family="system-ui,sans-serif" font-size="11" font-weight="700">D</text>
  <rect x="110" y="336" width="200" height="12" rx="3" fill="#2a6a7a" opacity="0.4"/>
  <rect x="110" y="356" width="140" height="8" rx="3" fill="#1a4a56" opacity="0.3"/>
  <rect x="600" y="341" width="80" height="22" rx="6" fill="#e8a87c" opacity="0.15"/>
  <text x="640" y="356" text-anchor="middle" fill="#e8a87c" font-family="system-ui,sans-serif" font-size="9">APPLY</text>
</svg>