<svg xmlns="http://www.w3.org/2000/svg" viewBox="0 0 800 400">
  <defs>
    <linearGradient id="certGold" x1="0%" y1="0%" x2="100%" y2="0%">
      <stop offset="0%" style="stop-color:#e8a87c;stop-opacity:0.2"/>
      <stop offset="100%" style="stop-color:#e8a87c;stop-opacity:0.05"/>
    </linearGradient>
    <linearGradient id="certTeal" x1="0%" y1="0%" x2="100%" y2="0%">
      <stop offset="0%" style="stop-color:#1a4a56;stop-opacity:0.5"/>
      <stop offset="100%" style="stop-color:#132f38;stop-opacity:0.3"/>
    </linearGradient>
  </defs>
  <rect width="800" height="400" fill="#0f2d35"/>

  <!-- Title -->
  <text x="400" y="32" fill="#ffffff" font-family="system-ui, -apple-system, sans-serif" font-size="18" font-weight="700" text-anchor="middle">Prompt Engineering Certifications Ranked</text>
  <text x="400" y="50" fill="#6a8a94" font-family="system-ui, sans-serif" font-size="11" text-anchor="middle">By career impact, curriculum depth, and industry recognition</text>

  <!-- Column headers -->
  <text x="50" y="78" fill="#6a8a94" font-family="system-ui, sans-serif" font-size="9" font-weight="600">RANK</text>
  <text x="100" y="78" fill="#6a8a94" font-family="system-ui, sans-serif" font-size="9" font-weight="600">CERTIFICATION</text>
  <text x="435" y="78" fill="#6a8a94" font-family="system-ui, sans-serif" font-size="9" font-weight="600">COST</text>
  <text x="530" y="78" fill="#6a8a94" font-family="system-ui, sans-serif" font-size="9" font-weight="600">DIFFICULTY</text>
  <text x="660" y="78" fill="#6a8a94" font-family="system-ui, sans-serif" font-size="9" font-weight="600">TARGET AUDIENCE</text>
  <line x1="30" y1="85" x2="770" y2="85" stroke="#1a4a56" stroke-width="1"/>

  <!-- 1. Google Cloud ML -->
  <rect x="30" y="92" width="740" height="55" rx="6" fill="url(#certGold)" stroke="#e8a87c" stroke-width="1"/>
  <circle cx="55" cy="119" r="14" fill="#e8a87c"/>
  <text x="55" y="124" fill="#0f2d35" font-family="system-ui, sans-serif" font-size="14" font-weight="800" text-anchor="middle">1</text>
  <text x="100" y="112" fill="#ffffff" font-family="system-ui, sans-serif" font-size="14" font-weight="700">Google Cloud ML Engineer</text>
  <text x="100" y="130" fill="#a8c5cc" font-family="system-ui, sans-serif" font-size="10">Professional certificate. Covers Vertex AI, prompt design, MLOps</text>
  <rect x="425" y="106" width="70" height="22" rx="4" fill="#e8a87c" opacity="0.2"/>
  <text x="460" y="121" fill="#e8a87c" font-family="system-ui, sans-serif" font-size="12" font-weight="700" text-anchor="middle">$300</text>
  <rect x="525" y="114" width="80" height="6" rx="3" fill="#1a4a56"/>
  <rect x="525" y="114" width="72" height="6" rx="3" fill="#e8a87c"/>
  <text x="525" y="110" fill="#a8c5cc" font-family="system-ui, sans-serif" font-size="9">Advanced</text>
  <text x="660" y="119" fill="#a8c5cc" font-family="system-ui, sans-serif" font-size="10">ML Engineers,</text>
  <text x="660" y="132" fill="#a8c5cc" font-family="system-ui, sans-serif" font-size="10">Data Scientists</text>

  <!-- 2. DeepLearning.AI -->
  <rect x="30" y="155" width="740" height="55" rx="6" fill="url(#certGold)" stroke="#e8a87c" stroke-width="0.5" opacity="0.8"/>
  <circle cx="55" cy="182" r="14" fill="#e8a87c" opacity="0.8"/>
  <text x="55" y="187" fill="#0f2d35" font-family="system-ui, sans-serif" font-size="14" font-weight="800" text-anchor="middle">2</text>
  <text x="100" y="175" fill="#ffffff" font-family="system-ui, sans-serif" font-size="14" font-weight="700">DeepLearning.AI Specialization</text>
  <text x="100" y="193" fill="#a8c5cc" font-family="system-ui, sans-serif" font-size="10">Andrew Ng's program. ChatGPT prompt engineering, LangChain, diffusion</text>
  <rect x="425" y="169" width="70" height="22" rx="4" fill="#e8a87c" opacity="0.15"/>
  <text x="460" y="184" fill="#f0c4a8" font-family="system-ui, sans-serif" font-size="12" font-weight="700" text-anchor="middle">$49/mo</text>
  <rect x="525" y="177" width="80" height="6" rx="3" fill="#1a4a56"/>
  <rect x="525" y="177" width="48" height="6" rx="3" fill="#3d8a9a"/>
  <text x="525" y="173" fill="#a8c5cc" font-family="system-ui, sans-serif" font-size="9">Intermediate</text>
  <text x="660" y="182" fill="#a8c5cc" font-family="system-ui, sans-serif" font-size="10">Developers,</text>
  <text x="660" y="195" fill="#a8c5cc" font-family="system-ui, sans-serif" font-size="10">Career Switchers</text>

  <!-- 3. AWS ML -->
  <rect x="30" y="218" width="740" height="55" rx="6" fill="url(#certTeal)" stroke="#2a6a7a" stroke-width="1"/>
  <circle cx="55" cy="245" r="14" fill="#2a6a7a"/>
  <text x="55" y="250" fill="#ffffff" font-family="system-ui, sans-serif" font-size="14" font-weight="800" text-anchor="middle">3</text>
  <text x="100" y="238" fill="#ffffff" font-family="system-ui, sans-serif" font-size="14" font-weight="700">AWS Machine Learning Specialty</text>
  <text x="100" y="256" fill="#a8c5cc" font-family="system-ui, sans-serif" font-size="10">Amazon Bedrock, SageMaker, prompt tuning for enterprise AI</text>
  <rect x="425" y="232" width="70" height="22" rx="4" fill="#1a4a56"/>
  <text x="460" y="247" fill="#a8c5cc" font-family="system-ui, sans-serif" font-size="12" font-weight="700" text-anchor="middle">$300</text>
  <rect x="525" y="240" width="80" height="6" rx="3" fill="#1a4a56"/>
  <rect x="525" y="240" width="68" height="6" rx="3" fill="#3d8a9a"/>
  <text x="525" y="236" fill="#a8c5cc" font-family="system-ui, sans-serif" font-size="9">Advanced</text>
  <text x="660" y="245" fill="#a8c5cc" font-family="system-ui, sans-serif" font-size="10">Cloud Architects,</text>
  <text x="660" y="258" fill="#a8c5cc" font-family="system-ui, sans-serif" font-size="10">AWS Teams</text>

  <!-- 4. Coursera PE -->
  <rect x="30" y="281" width="740" height="55" rx="6" fill="url(#certTeal)" stroke="#1a4a56" stroke-width="1"/>
  <circle cx="55" cy="308" r="14" fill="#1a4a56"/>
  <text x="55" y="313" fill="#a8c5cc" font-family="system-ui, sans-serif" font-size="14" font-weight="800" text-anchor="middle">4</text>
  <text x="100" y="301" fill="#ffffff" font-family="system-ui, sans-serif" font-size="14" font-weight="700">Coursera Prompt Engineering</text>
  <text x="100" y="319" fill="#a8c5cc" font-family="system-ui, sans-serif" font-size="10">Vanderbilt University. Focused on prompt patterns, ChatGPT mastery</text>
  <rect x="425" y="295" width="70" height="22" rx="4" fill="#1a4a56"/>
  <text x="460" y="310" fill="#a8c5cc" font-family="system-ui, sans-serif" font-size="12" font-weight="700" text-anchor="middle">$49</text>
  <rect x="525" y="303" width="80" height="6" rx="3" fill="#1a4a56"/>
  <rect x="525" y="303" width="28" height="6" rx="3" fill="#3d8a9a"/>
  <text x="525" y="299" fill="#a8c5cc" font-family="system-ui, sans-serif" font-size="9">Beginner</text>
  <text x="660" y="308" fill="#a8c5cc" font-family="system-ui, sans-serif" font-size="10">Beginners,</text>
  <text x="660" y="321" fill="#a8c5cc" font-family="system-ui, sans-serif" font-size="10">Non-Technical</text>

  <!-- 5. Microsoft AI -->
  <rect x="30" y="344" width="740" height="55" rx="6" fill="url(#certTeal)" stroke="#1a4a56" stroke-width="1"/>
  <circle cx="55" cy="371" r="14" fill="#1a4a56"/>
  <text x="55" y="376" fill="#a8c5cc" font-family="system-ui, sans-serif" font-size="14" font-weight="800" text-anchor="middle">5</text>
  <text x="100" y="364" fill="#ffffff" font-family="system-ui, sans-serif" font-size="14" font-weight="700">Microsoft AI Engineer Associate</text>
  <text x="100" y="382" fill="#a8c5cc" font-family="system-ui, sans-serif" font-size="10">Azure OpenAI, Copilot Studio, responsible AI, prompt flow</text>
  <rect x="425" y="358" width="70" height="22" rx="4" fill="#1a4a56"/>
  <text x="460" y="373" fill="#a8c5cc" font-family="system-ui, sans-serif" font-size="12" font-weight="700" text-anchor="middle">$165</text>
  <rect x="525" y="366" width="80" height="6" rx="3" fill="#1a4a56"/>
  <rect x="525" y="366" width="56" height="6" rx="3" fill="#3d8a9a"/>
  <text x="525" y="362" fill="#a8c5cc" font-family="system-ui, sans-serif" font-size="9">Intermediate</text>
  <text x="660" y="371" fill="#a8c5cc" font-family="system-ui, sans-serif" font-size="10">Microsoft Stack</text>
  <text x="660" y="384" fill="#a8c5cc" font-family="system-ui, sans-serif" font-size="10">Developers</text>
</svg>