<svg xmlns="http://www.w3.org/2000/svg" viewBox="0 0 800 400" font-family="'Space Grotesk', sans-serif">
  <!-- Background -->
  <rect width="800" height="400" rx="8" fill="#0f2d35"/>

  <!-- Title -->
  <text x="400" y="34" fill="#ffffff" font-size="18" font-weight="700" text-anchor="middle">Top Prompt Engineering Courses Compared</text>
  <text x="400" y="52" fill="#a8c5cc" font-size="11" text-anchor="middle">Price, format, and specialization at a glance</text>

  <!-- Table header -->
  <rect x="30" y="68" width="740" height="30" rx="4" fill="#132f38"/>
  <text x="180" y="88" fill="#6a8a94" font-size="11" font-weight="600" text-anchor="middle">COURSE</text>
  <text x="400" y="88" fill="#6a8a94" font-size="11" font-weight="600" text-anchor="middle">PROVIDER</text>
  <text x="540" y="88" fill="#6a8a94" font-size="11" font-weight="600" text-anchor="middle">PRICE</text>
  <text x="680" y="88" fill="#6a8a94" font-size="11" font-weight="600" text-anchor="middle">AWARD</text>

  <!-- Row dividers -->
  <g stroke="#1a4a56" stroke-opacity="0.4" stroke-width="1">
    <line x1="30" y1="144" x2="770" y2="144"/>
    <line x1="30" y1="190" x2="770" y2="190"/>
    <line x1="30" y1="236" x2="770" y2="236"/>
    <line x1="30" y1="282" x2="770" y2="282"/>
    <line x1="30" y1="328" x2="770" y2="328"/>
  </g>

  <!-- Row 1: Coursera Vanderbilt -->
  <text x="45" y="115" fill="#ffffff" font-size="12" font-weight="600">Prompt Engineering</text>
  <text x="45" y="130" fill="#ffffff" font-size="12" font-weight="600">for ChatGPT</text>
  <text x="400" y="122" fill="#a8c5cc" font-size="12" text-anchor="middle">Coursera / Vanderbilt</text>
  <rect x="500" y="108" width="80" height="24" rx="4" fill="#132f38" stroke="#3d8a9a" stroke-width="1"/>
  <text x="540" y="124" fill="#3d8a9a" font-size="13" font-weight="700" text-anchor="middle">Free*</text>
  <rect x="630" y="108" width="120" height="24" rx="12" fill="rgba(232,168,124,0.15)"/>
  <text x="690" y="124" fill="#e8a87c" font-size="10" font-weight="700" text-anchor="middle">BEST FREE</text>

  <!-- Row 2: DeepLearning.AI -->
  <text x="45" y="161" fill="#ffffff" font-size="12" font-weight="600">ChatGPT Prompt Eng.</text>
  <text x="45" y="176" fill="#ffffff" font-size="12" font-weight="600">for Developers</text>
  <text x="400" y="168" fill="#a8c5cc" font-size="12" text-anchor="middle">DeepLearning.AI</text>
  <rect x="500" y="154" width="80" height="24" rx="4" fill="#132f38" stroke="#3d8a9a" stroke-width="1"/>
  <text x="540" y="170" fill="#3d8a9a" font-size="13" font-weight="700" text-anchor="middle">Free</text>
  <rect x="630" y="154" width="120" height="24" rx="12" fill="rgba(232,168,124,0.15)"/>
  <text x="690" y="170" fill="#e8a87c" font-size="10" font-weight="700" text-anchor="middle">BEST TECHNICAL</text>

  <!-- Row 3: Anthropic Tutorial -->
  <text x="45" y="207" fill="#ffffff" font-size="12" font-weight="600">Interactive Prompt</text>
  <text x="45" y="222" fill="#ffffff" font-size="12" font-weight="600">Engineering Tutorial</text>
  <text x="400" y="214" fill="#a8c5cc" font-size="12" text-anchor="middle">Anthropic</text>
  <rect x="500" y="200" width="80" height="24" rx="4" fill="#132f38" stroke="#3d8a9a" stroke-width="1"/>
  <text x="540" y="216" fill="#3d8a9a" font-size="13" font-weight="700" text-anchor="middle">Free</text>
  <rect x="630" y="200" width="120" height="24" rx="12" fill="rgba(232,168,124,0.15)"/>
  <text x="690" y="216" fill="#e8a87c" font-size="10" font-weight="700" text-anchor="middle">BEST HANDS-ON</text>

  <!-- Row 4: Udemy Bootcamp -->
  <text x="45" y="253" fill="#ffffff" font-size="12" font-weight="600">Complete Prompt Eng.</text>
  <text x="45" y="268" fill="#ffffff" font-size="12" font-weight="600">Bootcamp</text>
  <text x="400" y="260" fill="#a8c5cc" font-size="12" text-anchor="middle">Udemy</text>
  <rect x="500" y="246" width="80" height="24" rx="4" fill="#132f38" stroke="#e8a87c" stroke-width="1"/>
  <text x="540" y="262" fill="#e8a87c" font-size="13" font-weight="700" text-anchor="middle">$15-20</text>
  <rect x="630" y="246" width="120" height="24" rx="12" fill="rgba(232,168,124,0.15)"/>
  <text x="690" y="262" fill="#e8a87c" font-size="10" font-weight="700" text-anchor="middle">BEST BEGINNER</text>

  <!-- Row 5: LearnPrompting.org -->
  <text x="45" y="299" fill="#ffffff" font-size="12" font-weight="600">Learn Prompting</text>
  <text x="45" y="314" fill="#ffffff" font-size="12" font-weight="600">Open Course</text>
  <text x="400" y="306" fill="#a8c5cc" font-size="12" text-anchor="middle">LearnPrompting.org</text>
  <rect x="500" y="292" width="80" height="24" rx="4" fill="#132f38" stroke="#3d8a9a" stroke-width="1"/>
  <text x="540" y="308" fill="#3d8a9a" font-size="13" font-weight="700" text-anchor="middle">Free</text>
  <rect x="630" y="292" width="120" height="24" rx="12" fill="rgba(232,168,124,0.15)"/>
  <text x="690" y="308" fill="#e8a87c" font-size="10" font-weight="700" text-anchor="middle">BEST COMMUNITY</text>

  <!-- Footer note -->
  <text x="45" y="356" fill="#6a8a94" font-size="10">* Free to audit; $49 for Coursera certificate</text>
  <text x="400" y="374" fill="#a8c5cc" font-size="11" text-anchor="middle">5 of 7 top courses are completely free. Paid options add certificates and structured projects.</text>

  <!-- Watermark -->
  <text x="780" y="390" fill="#6a8a94" font-size="10" text-anchor="end">PE Collective</text>
</svg>