<svg xmlns="http://www.w3.org/2000/svg" viewBox="0 0 1200 630" font-family="Inter,system-ui,sans-serif">
  <defs>
    <linearGradient id="bgGrad4" x1="0" y1="0" x2="0" y2="1">
      <stop offset="0%" stop-color="#0f2d35"/>
      <stop offset="100%" stop-color="#0a1f25"/>
    </linearGradient>
  </defs>

  <!-- Background -->
  <rect width="1200" height="630" fill="url(#bgGrad4)"/>

  <!-- Title -->
  <text x="60" y="52" fill="#ffffff" font-size="28" font-weight="700">AI Tool Comparison Matrix</text>
  <text x="60" y="78" fill="#6a8a94" font-size="14">Independent reviews from PE Collective</text>

  <!-- Table container -->
  <rect x="60" y="105" width="1080" height="420" rx="8" fill="#132f38"/>

  <!-- Column headers -->
  <rect x="60" y="105" width="1080" height="50" rx="8" fill="#0f2d35"/>
  <rect x="60" y="147" width="1080" height="8" fill="#132f38"/>
  <text x="130" y="136" fill="#6a8a94" font-size="14" font-weight="600" text-anchor="middle">Tool</text>
  <text x="340" y="136" fill="#6a8a94" font-size="14" font-weight="600" text-anchor="middle">Code</text>
  <text x="500" y="136" fill="#6a8a94" font-size="14" font-weight="600" text-anchor="middle">Writing</text>
  <text x="660" y="136" fill="#6a8a94" font-size="14" font-weight="600" text-anchor="middle">Research</text>
  <text x="820" y="136" fill="#6a8a94" font-size="14" font-weight="600" text-anchor="middle">Analysis</text>
  <text x="980" y="136" fill="#6a8a94" font-size="14" font-weight="600" text-anchor="middle">Price</text>

  <!-- Divider lines -->
  <g stroke="#1e4a55" stroke-width="1" opacity="0.5">
    <line x1="250" y1="105" x2="250" y2="525"/>
    <line x1="420" y1="105" x2="420" y2="525"/>
    <line x1="580" y1="105" x2="580" y2="525"/>
    <line x1="740" y1="105" x2="740" y2="525"/>
    <line x1="900" y1="105" x2="900" y2="525"/>
  </g>

  <!-- Row 1: ChatGPT -->
  <rect x="60" y="155" width="1080" height="70" fill="#132f38"/>
  <line x1="60" y1="225" x2="1140" y2="225" stroke="#1e4a55" stroke-width="1"/>
  <text x="80" y="195" fill="#ffffff" font-size="16" font-weight="600">ChatGPT</text>
  <text x="80" y="213" fill="#6a8a94" font-size="11">GPT-4o</text>
  <!-- Code: 4.5/5 -->
  <g transform="translate(295,183)">
    <circle cx="0" cy="0" r="5" fill="#3d8a9a"/><circle cx="18" cy="0" r="5" fill="#3d8a9a"/><circle cx="36" cy="0" r="5" fill="#3d8a9a"/><circle cx="54" cy="0" r="5" fill="#3d8a9a"/><circle cx="72" cy="0" r="5" fill="#3d8a9a" opacity="0.4"/>
  </g>
  <text x="340" y="210" fill="#a8c5cc" font-size="12" text-anchor="middle">4.5</text>
  <!-- Writing: 4/5 -->
  <g transform="translate(455,183)">
    <circle cx="0" cy="0" r="5" fill="#e8a87c"/><circle cx="18" cy="0" r="5" fill="#e8a87c"/><circle cx="36" cy="0" r="5" fill="#e8a87c"/><circle cx="54" cy="0" r="5" fill="#e8a87c"/><circle cx="72" cy="0" r="5" fill="#e8a87c" opacity="0.2"/>
  </g>
  <text x="500" y="210" fill="#a8c5cc" font-size="12" text-anchor="middle">4.0</text>
  <!-- Research: 4.5/5 -->
  <g transform="translate(615,183)">
    <circle cx="0" cy="0" r="5" fill="#3d8a9a"/><circle cx="18" cy="0" r="5" fill="#3d8a9a"/><circle cx="36" cy="0" r="5" fill="#3d8a9a"/><circle cx="54" cy="0" r="5" fill="#3d8a9a"/><circle cx="72" cy="0" r="5" fill="#3d8a9a" opacity="0.4"/>
  </g>
  <text x="660" y="210" fill="#a8c5cc" font-size="12" text-anchor="middle">4.5</text>
  <!-- Analysis: 4/5 -->
  <g transform="translate(775,183)">
    <circle cx="0" cy="0" r="5" fill="#e8a87c"/><circle cx="18" cy="0" r="5" fill="#e8a87c"/><circle cx="36" cy="0" r="5" fill="#e8a87c"/><circle cx="54" cy="0" r="5" fill="#e8a87c"/><circle cx="72" cy="0" r="5" fill="#e8a87c" opacity="0.2"/>
  </g>
  <text x="820" y="210" fill="#a8c5cc" font-size="12" text-anchor="middle">4.0</text>
  <!-- Price -->
  <text x="980" y="195" fill="#ffffff" font-size="15" font-weight="600" text-anchor="middle">$20/mo</text>

  <!-- Row 2: Claude -->
  <rect x="60" y="225" width="1080" height="70" fill="#0f2d35" opacity="0.5"/>
  <line x1="60" y1="295" x2="1140" y2="295" stroke="#1e4a55" stroke-width="1"/>
  <text x="80" y="265" fill="#ffffff" font-size="16" font-weight="600">Claude</text>
  <text x="80" y="283" fill="#6a8a94" font-size="11">Opus / Sonnet</text>
  <!-- Code: 5/5 -->
  <g transform="translate(295,253)">
    <circle cx="0" cy="0" r="5" fill="#3d8a9a"/><circle cx="18" cy="0" r="5" fill="#3d8a9a"/><circle cx="36" cy="0" r="5" fill="#3d8a9a"/><circle cx="54" cy="0" r="5" fill="#3d8a9a"/><circle cx="72" cy="0" r="5" fill="#3d8a9a"/>
  </g>
  <text x="340" y="280" fill="#a8c5cc" font-size="12" text-anchor="middle">5.0</text>
  <!-- Writing: 5/5 -->
  <g transform="translate(455,253)">
    <circle cx="0" cy="0" r="5" fill="#e8a87c"/><circle cx="18" cy="0" r="5" fill="#e8a87c"/><circle cx="36" cy="0" r="5" fill="#e8a87c"/><circle cx="54" cy="0" r="5" fill="#e8a87c"/><circle cx="72" cy="0" r="5" fill="#e8a87c"/>
  </g>
  <text x="500" y="280" fill="#a8c5cc" font-size="12" text-anchor="middle">5.0</text>
  <!-- Research: 4/5 -->
  <g transform="translate(615,253)">
    <circle cx="0" cy="0" r="5" fill="#3d8a9a"/><circle cx="18" cy="0" r="5" fill="#3d8a9a"/><circle cx="36" cy="0" r="5" fill="#3d8a9a"/><circle cx="54" cy="0" r="5" fill="#3d8a9a"/><circle cx="72" cy="0" r="5" fill="#3d8a9a" opacity="0.2"/>
  </g>
  <text x="660" y="280" fill="#a8c5cc" font-size="12" text-anchor="middle">4.0</text>
  <!-- Analysis: 5/5 -->
  <g transform="translate(775,253)">
    <circle cx="0" cy="0" r="5" fill="#e8a87c"/><circle cx="18" cy="0" r="5" fill="#e8a87c"/><circle cx="36" cy="0" r="5" fill="#e8a87c"/><circle cx="54" cy="0" r="5" fill="#e8a87c"/><circle cx="72" cy="0" r="5" fill="#e8a87c"/>
  </g>
  <text x="820" y="280" fill="#a8c5cc" font-size="12" text-anchor="middle">5.0</text>
  <!-- Price -->
  <text x="980" y="265" fill="#ffffff" font-size="15" font-weight="600" text-anchor="middle">$20/mo</text>

  <!-- Row 3: Gemini -->
  <rect x="60" y="295" width="1080" height="70" fill="#132f38"/>
  <line x1="60" y1="365" x2="1140" y2="365" stroke="#1e4a55" stroke-width="1"/>
  <text x="80" y="335" fill="#ffffff" font-size="16" font-weight="600">Gemini</text>
  <text x="80" y="353" fill="#6a8a94" font-size="11">2.5 Pro / Flash</text>
  <!-- Code: 4/5 -->
  <g transform="translate(295,323)">
    <circle cx="0" cy="0" r="5" fill="#3d8a9a"/><circle cx="18" cy="0" r="5" fill="#3d8a9a"/><circle cx="36" cy="0" r="5" fill="#3d8a9a"/><circle cx="54" cy="0" r="5" fill="#3d8a9a"/><circle cx="72" cy="0" r="5" fill="#3d8a9a" opacity="0.2"/>
  </g>
  <text x="340" y="350" fill="#a8c5cc" font-size="12" text-anchor="middle">4.0</text>
  <!-- Writing: 3.5/5 -->
  <g transform="translate(455,323)">
    <circle cx="0" cy="0" r="5" fill="#e8a87c"/><circle cx="18" cy="0" r="5" fill="#e8a87c"/><circle cx="36" cy="0" r="5" fill="#e8a87c"/><circle cx="54" cy="0" r="5" fill="#e8a87c" opacity="0.4"/><circle cx="72" cy="0" r="5" fill="#e8a87c" opacity="0.2"/>
  </g>
  <text x="500" y="350" fill="#a8c5cc" font-size="12" text-anchor="middle">3.5</text>
  <!-- Research: 5/5 -->
  <g transform="translate(615,323)">
    <circle cx="0" cy="0" r="5" fill="#3d8a9a"/><circle cx="18" cy="0" r="5" fill="#3d8a9a"/><circle cx="36" cy="0" r="5" fill="#3d8a9a"/><circle cx="54" cy="0" r="5" fill="#3d8a9a"/><circle cx="72" cy="0" r="5" fill="#3d8a9a"/>
  </g>
  <text x="660" y="350" fill="#a8c5cc" font-size="12" text-anchor="middle">5.0</text>
  <!-- Analysis: 4/5 -->
  <g transform="translate(775,323)">
    <circle cx="0" cy="0" r="5" fill="#e8a87c"/><circle cx="18" cy="0" r="5" fill="#e8a87c"/><circle cx="36" cy="0" r="5" fill="#e8a87c"/><circle cx="54" cy="0" r="5" fill="#e8a87c"/><circle cx="72" cy="0" r="5" fill="#e8a87c" opacity="0.2"/>
  </g>
  <text x="820" y="350" fill="#a8c5cc" font-size="12" text-anchor="middle">4.0</text>
  <!-- Price -->
  <text x="980" y="335" fill="#ffffff" font-size="15" font-weight="600" text-anchor="middle">$20/mo</text>

  <!-- Row 4: Copilot -->
  <rect x="60" y="365" width="1080" height="70" fill="#0f2d35" opacity="0.5"/>
  <text x="80" y="405" fill="#ffffff" font-size="16" font-weight="600">Copilot</text>
  <text x="80" y="423" fill="#6a8a94" font-size="11">GitHub Copilot</text>
  <!-- Code: 4.5/5 -->
  <g transform="translate(295,393)">
    <circle cx="0" cy="0" r="5" fill="#3d8a9a"/><circle cx="18" cy="0" r="5" fill="#3d8a9a"/><circle cx="36" cy="0" r="5" fill="#3d8a9a"/><circle cx="54" cy="0" r="5" fill="#3d8a9a"/><circle cx="72" cy="0" r="5" fill="#3d8a9a" opacity="0.4"/>
  </g>
  <text x="340" y="420" fill="#a8c5cc" font-size="12" text-anchor="middle">4.5</text>
  <!-- Writing: 2.5/5 -->
  <g transform="translate(455,393)">
    <circle cx="0" cy="0" r="5" fill="#e8a87c"/><circle cx="18" cy="0" r="5" fill="#e8a87c"/><circle cx="36" cy="0" r="5" fill="#e8a87c" opacity="0.4"/><circle cx="54" cy="0" r="5" fill="#e8a87c" opacity="0.2"/><circle cx="72" cy="0" r="5" fill="#e8a87c" opacity="0.2"/>
  </g>
  <text x="500" y="420" fill="#a8c5cc" font-size="12" text-anchor="middle">2.5</text>
  <!-- Research: 2/5 -->
  <g transform="translate(615,393)">
    <circle cx="0" cy="0" r="5" fill="#3d8a9a"/><circle cx="18" cy="0" r="5" fill="#3d8a9a"/><circle cx="36" cy="0" r="5" fill="#3d8a9a" opacity="0.2"/><circle cx="54" cy="0" r="5" fill="#3d8a9a" opacity="0.2"/><circle cx="72" cy="0" r="5" fill="#3d8a9a" opacity="0.2"/>
  </g>
  <text x="660" y="420" fill="#a8c5cc" font-size="12" text-anchor="middle">2.0</text>
  <!-- Analysis: 3/5 -->
  <g transform="translate(775,393)">
    <circle cx="0" cy="0" r="5" fill="#e8a87c"/><circle cx="18" cy="0" r="5" fill="#e8a87c"/><circle cx="36" cy="0" r="5" fill="#e8a87c"/><circle cx="54" cy="0" r="5" fill="#e8a87c" opacity="0.2"/><circle cx="72" cy="0" r="5" fill="#e8a87c" opacity="0.2"/>
  </g>
  <text x="820" y="420" fill="#a8c5cc" font-size="12" text-anchor="middle">3.0</text>
  <!-- Price -->
  <text x="980" y="405" fill="#ffffff" font-size="15" font-weight="600" text-anchor="middle">$10/mo</text>

  <!-- Legend -->
  <circle cx="80" y="555" r="5" fill="#3d8a9a" cy="555"/>
  <text x="94" y="559" fill="#6a8a94" font-size="12">Technical strength</text>
  <circle cx="240" cy="555" r="5" fill="#e8a87c"/>
  <text x="254" y="559" fill="#6a8a94" font-size="12">Creative strength</text>

  <!-- Footer -->
  <text x="1140" y="600" fill="#6a8a94" font-size="11" text-anchor="end">pecollective.com · Independent reviews</text>
</svg>