<svg xmlns="http://www.w3.org/2000/svg" viewBox="0 0 800 400">
  <rect width="800" height="400" fill="#0f2d35" rx="12"/>
  <text x="400" y="36" text-anchor="middle" fill="#ffffff" font-family="system-ui,sans-serif" font-size="18" font-weight="700">AI API Providers</text>
  <text x="400" y="58" text-anchor="middle" fill="#6a8a94" font-family="system-ui,sans-serif" font-size="11">Top 5 Compared</text>
<rect x="50" y="75" width="700" height="44" rx="6" fill="#132f38" stroke="#1a4a56" stroke-width="1"/><text x="70" y="92" fill="#e8a87c" font-family="system-ui,sans-serif" font-size="11" font-weight="700">#1</text><text x="100" y="92" fill="#ffffff" font-family="system-ui,sans-serif" font-size="12" font-weight="600">OpenAI</text><rect x="100" y="99" width="517" height="10" rx="5" fill="#e8a87c" opacity="1"/><text x="627" y="108" fill="#a8c5cc" font-family="system-ui,sans-serif" font-size="9">94/100</text><rect x="50" y="127" width="700" height="44" rx="6" fill="#132f38" stroke="#1a4a56" stroke-width="1"/><text x="70" y="144" fill="#a8c5cc" font-family="system-ui,sans-serif" font-size="11" font-weight="700">#2</text><text x="100" y="144" fill="#ffffff" font-family="system-ui,sans-serif" font-size="12" font-weight="600">Anthropic</text><rect x="100" y="151" width="478" height="10" rx="5" fill="#3d8a9a" opacity="0.7"/><text x="588" y="160" fill="#a8c5cc" font-family="system-ui,sans-serif" font-size="9">87/100</text><rect x="50" y="179" width="700" height="44" rx="6" fill="#132f38" stroke="#1a4a56" stroke-width="1"/><text x="70" y="196" fill="#a8c5cc" font-family="system-ui,sans-serif" font-size="11" font-weight="700">#3</text><text x="100" y="196" fill="#ffffff" font-family="system-ui,sans-serif" font-size="12" font-weight="600">Google AI</text><rect x="100" y="203" width="451" height="10" rx="5" fill="#3d8a9a" opacity="0.7"/><text x="561" y="212" fill="#a8c5cc" font-family="system-ui,sans-serif" font-size="9">82/100</text><rect x="50" y="231" width="700" height="44" rx="6" fill="#132f38" stroke="#1a4a56" stroke-width="1"/><text x="70" y="248" fill="#a8c5cc" font-family="system-ui,sans-serif" font-size="11" font-weight="700">#4</text><text x="100" y="248" fill="#ffffff" font-family="system-ui,sans-serif" font-size="12" font-weight="600">Cohere</text><rect x="100" y="255" width="390" height="10" rx="5" fill="#3d8a9a" opacity="0.7"/><text x="500" y="264" fill="#a8c5cc" font-family="system-ui,sans-serif" font-size="9">71/100</text><rect x="50" y="283" width="700" height="44" rx="6" fill="#132f38" stroke="#1a4a56" stroke-width="1"/><text x="70" y="300" fill="#a8c5cc" font-family="system-ui,sans-serif" font-size="11" font-weight="700">#5</text><text x="100" y="300" fill="#ffffff" font-family="system-ui,sans-serif" font-size="12" font-weight="600">Mistral</text><rect x="100" y="307" width="330" height="10" rx="5" fill="#3d8a9a" opacity="0.7"/><text x="440" y="316" fill="#a8c5cc" font-family="system-ui,sans-serif" font-size="9">60/100</text></svg>