<svg xmlns="http://www.w3.org/2000/svg" viewBox="0 0 800 400">
  <rect width="800" height="400" fill="#0f2d35" rx="12"/>
  <text x="400" y="36" text-anchor="middle" fill="#ffffff" font-family="system-ui,sans-serif" font-size="18" font-weight="700">CrewAI Framework Alternatives</text>
  <text x="400" y="58" text-anchor="middle" fill="#6a8a94" font-family="system-ui,sans-serif" font-size="11">CrewAI vs Alternatives - Feature Comparison</text>
<rect x="50" y="70" width="330" height="40" rx="8" fill="#1a4a56"/><text x="215" y="96" text-anchor="middle" fill="#e8a87c" font-family="system-ui,sans-serif" font-size="14" font-weight="700">CrewAI</text><rect x="420" y="70" width="330" height="40" rx="8" fill="#1a4a56"/><text x="585" y="96" text-anchor="middle" fill="#e8a87c" font-family="system-ui,sans-serif" font-size="14" font-weight="700">Alternatives</text><text x="400" y="144" text-anchor="middle" fill="#a8c5cc" font-family="system-ui,sans-serif" font-size="11" font-weight="600">Code Quality</text><rect x="207" y="150" width="173" height="16" rx="4" fill="#3d8a9a" opacity="0.8"/><text x="202" y="163" text-anchor="end" fill="#a8c5cc" font-family="system-ui,sans-serif" font-size="10">62%</text><rect x="420" y="150" width="190" height="16" rx="4" fill="#e8a87c" opacity="0.7"/><text x="615" y="163" fill="#a8c5cc" font-family="system-ui,sans-serif" font-size="10">68%</text><text x="400" y="204" text-anchor="middle" fill="#a8c5cc" font-family="system-ui,sans-serif" font-size="11" font-weight="600">Ease of Use</text><rect x="204" y="210" width="176" height="16" rx="4" fill="#3d8a9a" opacity="0.8"/><text x="199" y="223" text-anchor="end" fill="#a8c5cc" font-family="system-ui,sans-serif" font-size="10">63%</text><rect x="420" y="210" width="173" height="16" rx="4" fill="#e8a87c" opacity="0.7"/><text x="598" y="223" fill="#a8c5cc" font-family="system-ui,sans-serif" font-size="10">62%</text><text x="400" y="264" text-anchor="middle" fill="#a8c5cc" font-family="system-ui,sans-serif" font-size="11" font-weight="600">Integrations</text><rect x="207" y="270" width="173" height="16" rx="4" fill="#3d8a9a" opacity="0.8"/><text x="202" y="283" text-anchor="end" fill="#a8c5cc" font-family="system-ui,sans-serif" font-size="10">62%</text><rect x="420" y="270" width="215" height="16" rx="4" fill="#e8a87c" opacity="0.7"/><text x="640" y="283" fill="#a8c5cc" font-family="system-ui,sans-serif" font-size="10">77%</text><text x="400" y="324" text-anchor="middle" fill="#a8c5cc" font-family="system-ui,sans-serif" font-size="11" font-weight="600">Value for Money</text><rect x="154" y="330" width="226" height="16" rx="4" fill="#3d8a9a" opacity="0.8"/><text x="149" y="343" text-anchor="end" fill="#a8c5cc" font-family="system-ui,sans-serif" font-size="10">81%</text><rect x="420" y="330" width="170" height="16" rx="4" fill="#e8a87c" opacity="0.7"/><text x="595" y="343" fill="#a8c5cc" font-family="system-ui,sans-serif" font-size="10">61%</text></svg>