<svg xmlns="http://www.w3.org/2000/svg" viewBox="0 0 800 400">
  <rect width="800" height="400" fill="#0f2d35" rx="12"/>
  <text x="400" y="36" text-anchor="middle" fill="#ffffff" font-family="system-ui,sans-serif" font-size="18" font-weight="700">AI Salary Calculator</text>
  
<rect x="300" y="60" width="200" height="60" rx="10" fill="#132f38" stroke="#1a4a56" stroke-width="1"/><text x="400" y="86" text-anchor="middle" fill="#e8a87c" font-family="system-ui,sans-serif" font-size="24" font-weight="700">4.5/5</text><text x="400" y="108" text-anchor="middle" fill="#6a8a94" font-family="system-ui,sans-serif" font-size="10">Overall Rating</text><rect x="50" y="140" width="350" height="100" rx="8" fill="#132f38" stroke="#1a4a56" stroke-width="1"/><text x="65" y="168" fill="#ffffff" font-family="system-ui,sans-serif" font-size="13" font-weight="600">Role Selection</text><rect x="65" y="180" width="280" height="8" rx="4" fill="#1a4a56"/><rect x="65" y="180" width="249" height="8" rx="4" fill="#e8a87c"/><text x="355" y="188" fill="#a8c5cc" font-family="system-ui,sans-serif" font-size="10">89%</text><text x="65" y="215" fill="#6a8a94" font-family="system-ui,sans-serif" font-size="10">Strong performance in benchmarks</text><rect x="420" y="140" width="350" height="100" rx="8" fill="#132f38" stroke="#1a4a56" stroke-width="1"/><text x="435" y="168" fill="#ffffff" font-family="system-ui,sans-serif" font-size="13" font-weight="600">Location Factor</text><rect x="435" y="180" width="280" height="8" rx="4" fill="#1a4a56"/><rect x="435" y="180" width="232" height="8" rx="4" fill="#e8a87c"/><text x="725" y="188" fill="#a8c5cc" font-family="system-ui,sans-serif" font-size="10">83%</text><text x="435" y="215" fill="#6a8a94" font-family="system-ui,sans-serif" font-size="10">Strong performance in benchmarks</text><rect x="50" y="260" width="350" height="100" rx="8" fill="#132f38" stroke="#1a4a56" stroke-width="1"/><text x="65" y="288" fill="#ffffff" font-family="system-ui,sans-serif" font-size="13" font-weight="600">Experience Level</text><rect x="65" y="300" width="280" height="8" rx="4" fill="#1a4a56"/><rect x="65" y="300" width="184" height="8" rx="4" fill="#e8a87c"/><text x="355" y="308" fill="#a8c5cc" font-family="system-ui,sans-serif" font-size="10">66%</text><text x="65" y="335" fill="#6a8a94" font-family="system-ui,sans-serif" font-size="10">Good performance in benchmarks</text><rect x="420" y="260" width="350" height="100" rx="8" fill="#132f38" stroke="#1a4a56" stroke-width="1"/><text x="435" y="288" fill="#ffffff" font-family="system-ui,sans-serif" font-size="13" font-weight="600">Market Data</text><rect x="435" y="300" width="280" height="8" rx="4" fill="#1a4a56"/><rect x="435" y="300" width="257" height="8" rx="4" fill="#e8a87c"/><text x="725" y="308" fill="#a8c5cc" font-family="system-ui,sans-serif" font-size="10">92%</text><text x="435" y="335" fill="#6a8a94" font-family="system-ui,sans-serif" font-size="10">Strong performance in benchmarks</text></svg>