<svg xmlns="http://www.w3.org/2000/svg" viewBox="0 0 800 400">
  <rect width="800" height="400" fill="#0f2d35" rx="12"/>
  <text x="400" y="36" text-anchor="middle" fill="#ffffff" font-family="system-ui,sans-serif" font-size="18" font-weight="700">Vector Databases</text>
  <text x="400" y="58" text-anchor="middle" fill="#6a8a94" font-family="system-ui,sans-serif" font-size="11">Top 6 Compared</text>
<rect x="50" y="75" width="700" height="44" rx="6" fill="#132f38" stroke="#1a4a56" stroke-width="1"/><text x="70" y="92" fill="#e8a87c" font-family="system-ui,sans-serif" font-size="11" font-weight="700">#1</text><text x="100" y="92" fill="#ffffff" font-family="system-ui,sans-serif" font-size="12" font-weight="600">Pinecone</text><rect x="100" y="99" width="528" height="10" rx="5" fill="#e8a87c" opacity="1"/><text x="638" y="108" fill="#a8c5cc" font-family="system-ui,sans-serif" font-size="9">96/100</text><rect x="50" y="127" width="700" height="44" rx="6" fill="#132f38" stroke="#1a4a56" stroke-width="1"/><text x="70" y="144" fill="#a8c5cc" font-family="system-ui,sans-serif" font-size="11" font-weight="700">#2</text><text x="100" y="144" fill="#ffffff" font-family="system-ui,sans-serif" font-size="12" font-weight="600">Weaviate</text><rect x="100" y="151" width="495" height="10" rx="5" fill="#3d8a9a" opacity="0.7"/><text x="605" y="160" fill="#a8c5cc" font-family="system-ui,sans-serif" font-size="9">90/100</text><rect x="50" y="179" width="700" height="44" rx="6" fill="#132f38" stroke="#1a4a56" stroke-width="1"/><text x="70" y="196" fill="#a8c5cc" font-family="system-ui,sans-serif" font-size="11" font-weight="700">#3</text><text x="100" y="196" fill="#ffffff" font-family="system-ui,sans-serif" font-size="12" font-weight="600">pgvector</text><rect x="100" y="203" width="429" height="10" rx="5" fill="#3d8a9a" opacity="0.7"/><text x="539" y="212" fill="#a8c5cc" font-family="system-ui,sans-serif" font-size="9">78/100</text><rect x="50" y="231" width="700" height="44" rx="6" fill="#132f38" stroke="#1a4a56" stroke-width="1"/><text x="70" y="248" fill="#a8c5cc" font-family="system-ui,sans-serif" font-size="11" font-weight="700">#4</text><text x="100" y="248" fill="#ffffff" font-family="system-ui,sans-serif" font-size="12" font-weight="600">Chroma</text><rect x="100" y="255" width="390" height="10" rx="5" fill="#3d8a9a" opacity="0.7"/><text x="500" y="264" fill="#a8c5cc" font-family="system-ui,sans-serif" font-size="9">71/100</text><rect x="50" y="283" width="700" height="44" rx="6" fill="#132f38" stroke="#1a4a56" stroke-width="1"/><text x="70" y="300" fill="#a8c5cc" font-family="system-ui,sans-serif" font-size="11" font-weight="700">#5</text><text x="100" y="300" fill="#ffffff" font-family="system-ui,sans-serif" font-size="12" font-weight="600">Qdrant</text><rect x="100" y="307" width="330" height="10" rx="5" fill="#3d8a9a" opacity="0.7"/><text x="440" y="316" fill="#a8c5cc" font-family="system-ui,sans-serif" font-size="9">60/100</text><rect x="50" y="335" width="700" height="44" rx="6" fill="#132f38" stroke="#1a4a56" stroke-width="1"/><text x="70" y="352" fill="#a8c5cc" font-family="system-ui,sans-serif" font-size="11" font-weight="700">#6</text><text x="100" y="352" fill="#ffffff" font-family="system-ui,sans-serif" font-size="12" font-weight="600">Milvus</text><rect x="100" y="359" width="291" height="10" rx="5" fill="#3d8a9a" opacity="0.7"/><text x="401" y="368" fill="#a8c5cc" font-family="system-ui,sans-serif" font-size="9">53/100</text></svg>